<svg xmlns="http://www.w3.org/2000/svg" viewBox="0 0 420 420" width="420" height="420" role="img" aria-label="Holographic Memory">
  <g transform="translate(3,3)"><g transform="translate(0.000000,420.000000) scale(0.100000,-0.100000)" fill="#000000" stroke="none"><path d="M2957 3192 c-10 -10 -17 -28 -17 -39 0 -16 -23 -34 -97 -76 -54 -30
-170 -95 -258 -144 -88 -50 -214 -123 -279 -162 -105 -64 -122 -71 -143 -62
-33 15 -39 14 -62 -10 l-19 -21 -431 219 c-308 156 -431 223 -431 235 0 48
-69 64 -97 22 -16 -24 -16 -28 1 -58 17 -32 -46 -359 -75 -391 -5 -5 -9 -20
-9 -33 0 -13 -24 -126 -54 -250 -30 -125 -60 -251 -66 -280 -10 -42 -17 -53
-37 -58 -31 -8 -46 -46 -31 -79 22 -48 -2 -75 -67 -75 -30 0 -55 -4 -55 -9 0
-9 48 -21 86 -21 23 0 23 -2 -24 -97 -27 -54 -68 -144 -93 -200 -24 -57 -49
-103 -56 -103 -20 0 -53 -38 -53 -60 0 -28 35 -60 65 -60 14 0 25 -4 25 -10 0
-5 19 -40 43 -77 24 -37 101 -160 171 -273 70 -113 152 -243 182 -290 30 -47
68 -107 85 -133 l30 -49 -93 4 c-56 2 -95 -1 -98 -7 -3 -6 34 -12 97 -15 l101
-5 51 -78 c28 -43 51 -80 51 -82 0 -3 -52 -2 -115 1 -75 5 -115 4 -115 -3 0
-10 119 -23 206 -23 l42 0 102 -165 c56 -91 106 -167 111 -171 29 -17 11 17
-81 161 -55 87 -99 162 -96 169 3 6 8 1 11 -10 15 -48 105 -47 105 1 0 50 18
24 130 -185 53 -99 80 -140 92 -140 21 0 21 1 9 32 -6 13 -60 158 -122 323
-61 165 -118 313 -126 328 -8 16 -13 33 -11 39 8 23 223 -428 317 -665 13 -31
28 -57 33 -57 31 0 -159 423 -354 790 -94 176 -91 180 63 95 175 -97 254 -150
257 -174 5 -30 46 -55 77 -47 20 5 25 3 25 -13 0 -11 9 -95 19 -188 11 -92 23
-234 27 -315 4 -88 11 -148 17 -148 14 0 1 256 -23 471 -23 202 -27 191 47
146 l58 -35 -6 -144 c-4 -79 -10 -209 -14 -290 -7 -134 -6 -148 9 -148 11 0
16 10 17 33 l2 32 6 -35 7 -35 12 40 c27 94 76 420 66 437 -3 4 6 12 21 18 14
5 30 21 37 35 15 33 31 32 26 -2 -9 -50 -98 -387 -120 -450 -21 -59 -19 -88 2
-67 6 6 34 106 65 224 30 118 62 240 72 270 l18 55 73 14 c93 18 92 21 26 -95
-101 -173 -225 -456 -209 -473 9 -9 22 13 39 69 24 76 93 220 183 382 l76 137
51 11 c137 28 148 29 141 12 -3 -8 -51 -92 -106 -186 -56 -94 -126 -214 -157
-266 -30 -52 -63 -110 -74 -127 -15 -24 -16 -33 -6 -33 7 0 26 24 42 53 34 60
195 334 283 482 l59 99 160 32 c87 18 161 31 163 29 5 -5 -7 -20 -198 -254
l-165 -201 -63 0 c-35 0 -63 -4 -63 -10 0 -5 25 -10 55 -10 l56 0 -23 -30
c-18 -24 -29 -30 -60 -30 -24 0 -37 -4 -33 -10 3 -6 17 -10 31 -10 l25 0 -23
-30 c-20 -28 -26 -30 -85 -30 -35 0 -63 -4 -63 -10 0 -5 23 -10 50 -10 56 0
59 -4 28 -37 -17 -19 -19 -23 -5 -23 8 0 25 13 37 30 l21 30 140 0 c91 0 138
4 134 10 -4 6 -57 10 -126 10 -125 0 -130 2 -100 38 17 19 29 22 95 22 93 0
101 18 10 22 l-66 3 22 28 c21 27 23 27 136 27 145 0 153 18 9 22 l-105 3 170
210 c93 116 177 211 187 213 76 12 93 34 68 84 -18 37 -17 40 43 178 25 58
127 309 227 558 145 363 186 456 205 465 50 26 52 98 2 105 -26 4 -71 89 -232
442 -57 124 -141 308 -187 409 -75 164 -83 189 -78 223 11 65 -48 105 -88 60z
m-47 -279 c-79 -259 -161 -517 -165 -522 -12 -11 -235 109 -235 127 0 28 -25
45 -60 40 -16 -3 -30 -2 -30 1 0 12 535 541 538 532 2 -5 -20 -85 -48 -178z
m-1261 -39 c234 -119 427 -219 429 -223 1 -4 -59 -41 -134 -84 l-136 -77 -83
0 c-112 0 -117 -16 -7 -23 85 -5 88 -4 142 27 30 18 78 45 105 60 l50 27 -35
-31 c-133 -120 -162 -142 -173 -131 -21 21 -165 14 -177 -9 -10 -18 -9 -20 12
-16 110 23 188 15 152 -15 -20 -17 -190 -27 -180 -10 11 18 -9 13 -37 -9 -21
-17 -30 -18 -53 -10 -40 15 -74 -10 -74 -54 0 -19 6 -36 13 -39 6 -2 8 -8 4
-13 -4 -5 -12 -2 -17 6 -7 11 -11 12 -25 0 -14 -11 -18 -10 -31 8 -8 12 -23
22 -33 22 -37 0 -55 -46 -26 -70 37 -31 17 -41 -189 -100 -128 -37 -122 -39
-107 52 7 40 23 161 37 268 32 259 32 260 55 260 11 0 19 5 19 10 0 6 -7 10
-15 10 -19 0 -19 2 5 156 11 71 20 143 20 161 0 28 22 52 59 62 2 1 195 -96
430 -215z m1422 101 c28 -60 100 -220 161 -355 60 -135 143 -314 184 -399 41
-85 74 -158 74 -162 0 -22 2 -23 -587 254 -73 34 -133 65 -133 69 0 3 38 127
84 275 46 147 94 305 107 351 31 114 44 110 110 -33z m-420 -149 c-134 -134
-247 -250 -252 -257 -8 -13 -192 62 -206 84 -10 16 29 43 247 169 361 209 445
256 449 252 3 -3 -105 -114 -238 -248z m-1562 -110 c-9 -8 -10 -5 -5 14 3 14
6 32 7 40 1 8 4 2 6 -14 3 -16 -1 -34 -8 -40z m-4 -48 c-2 -7 -14 -88 -26
-180 -22 -163 -23 -168 -46 -168 -18 0 -23 -5 -23 -25 0 -18 5 -25 20 -25 23
0 23 -5 7 -110 -12 -72 -13 -75 -45 -84 -53 -15 -55 -38 49 405 21 92 39 174
39 183 0 9 7 16 15 16 8 0 13 -6 10 -12z m1045 -116 c0 -87 -10 -123 -32 -116
-22 7 -47 -11 -58 -42 -6 -15 -21 -24 -47 -29 -21 -3 -65 -18 -98 -31 -98 -41
-112 -44 -126 -27 -10 11 -10 16 0 22 6 4 49 42 94 85 232 217 267 235 267
138z m154 27 l87 -40 -22 -27 c-15 -19 -33 -28 -62 -32 -36 -4 -43 -9 -51 -36
-7 -24 -17 -33 -48 -41 -50 -13 -51 -10 -42 100 10 135 11 136 138 76z m129
-123 c-13 -22 -68 -86 -74 -86 -18 0 5 107 29 133 l26 27 13 -31 c7 -17 10
-36 6 -43z m206 -35 c55 -27 106 -51 112 -53 10 -3 -33 -160 -85 -308 -14 -43
-50 -53 -73 -21 -8 12 -25 21 -37 21 -25 0 -47 33 -144 210 l-41 75 41 53 c26
33 48 52 62 52 11 0 28 5 36 10 22 14 19 15 129 -39z m-367 -36 c10 -10 -32
-141 -69 -214 -55 -108 -66 -105 -58 15 10 171 13 181 43 193 30 10 76 14 84
6z m68 -39 c0 -7 -6 -20 -13 -30 -12 -16 -13 -14 -9 18 4 32 22 43 22 12z
m-36 -23 c-4 -21 -13 -47 -20 -58 -18 -25 -17 -20 1 43 18 61 29 69 19 15z
m826 -133 c189 -87 348 -164 354 -170 10 -11 -433 -7 -724 5 -88 4 -85 -15
-29 170 48 156 47 155 52 155 2 0 158 -72 347 -160z m-1362 138 c-6 -16 -137
-49 -165 -41 -22 5 -31 32 -16 46 12 13 185 8 181 -5z m314 -83 c-1 -50 -6
-109 -10 -133 l-7 -42 -157 77 c-143 69 -196 105 -135 90 12 -4 29 -2 37 4 11
8 9 9 -10 5 -15 -4 -9 2 15 14 22 11 45 20 50 20 6 0 44 14 85 30 41 16 89 29
105 27 l30 -2 -3 -90z m46 -27 c-3 -62 -7 -116 -7 -120 -1 -5 -8 -8 -17 -8
-12 0 -14 7 -10 28 3 15 8 65 12 112 3 47 8 88 11 93 14 24 17 -6 11 -105z
m317 -49 c37 -66 63 -124 59 -130 -7 -11 -210 -6 -222 5 -15 16 11 125 31 130
21 6 21 7 5 20 -24 18 -23 31 8 84 32 54 24 61 119 -109z m-775 101 c0 -5 -8
-10 -17 -10 -15 0 -16 2 -3 10 19 12 20 12 20 0z m105 0 c-3 -5 -16 -10 -28
-10 -18 0 -19 2 -7 10 20 13 43 13 35 0z m-174 -21 c21 -18 16 -38 -11 -39 -8
0 -28 49 -22 55 7 7 6 8 33 -16z m-53 -36 c4 -25 -1 -28 -114 -62 -93 -28
-109 -26 -52 6 35 19 45 29 38 38 -8 9 -3 15 17 23 70 27 107 25 111 -5z m727
-55 c-11 -113 -13 -118 -46 -118 -39 0 -38 22 6 110 43 86 49 87 40 8z m-389
-27 c180 -85 199 -101 137 -121 -21 -7 -105 -41 -186 -76 -162 -70 -162 -70
-171 -21 -3 18 -22 82 -41 142 -19 61 -31 111 -27 113 4 1 25 11 47 21 58 28
56 28 241 -58z m-376 16 c0 -4 -193 -173 -247 -216 -43 -34 -103 -32 -103 3 0
42 141 151 237 183 97 32 113 36 113 30z m100 -122 c17 -60 35 -122 40 -137 5
-15 6 -29 2 -32 -23 -12 -237 -99 -247 -99 -17 0 -155 103 -155 116 0 7 35 40
78 74 42 34 113 93 157 131 94 82 84 86 125 -53z m-328 85 c-27 -22 -97 -45
-169 -56 -72 -10 -48 3 73 41 129 40 125 39 96 15z m-95 -106 c-54 -53 -59
-55 -80 -41 -52 34 13 83 128 95 6 1 -16 -24 -48 -54z m1067 8 c3 -5 2 -21 -2
-36 l-7 -27 -28 21 c-36 29 -35 50 2 50 17 0 32 -4 35 -8z m173 -2 c42 0 55
-4 60 -17 3 -10 14 -25 24 -33 17 -14 -3 -221 -21 -220 -3 0 -41 32 -85 71
-44 40 -92 82 -107 95 -57 50 -37 119 31 110 24 -3 68 -6 98 -6z m-1447 -10
c0 -5 -2 -10 -4 -10 -3 0 -8 5 -11 10 -3 6 -1 10 4 10 6 0 11 -4 11 -10z
m1089 -50 c-24 -108 -73 -160 -152 -160 -36 0 -56 -4 -52 -10 3 -5 30 -10 60
-10 48 0 53 -2 48 -20 -5 -18 -14 -20 -89 -20 -49 0 -84 -4 -84 -10 0 -6 32
-10 75 -10 l75 0 -70 -140 c-94 -187 -95 -186 -147 65 -19 88 -36 171 -39 185
-5 25 1 29 183 107 205 88 207 89 192 23z m1244 42 l168 -7 -86 -47 c-116 -63
-125 -66 -125 -34 0 55 -65 86 -93 45 l-15 -21 -134 21 c-73 11 -180 27 -237
35 -56 8 -104 16 -106 18 -5 5 437 -2 628 -10z m-681 -32 c-9 -84 -63 -220
-87 -220 -30 0 -31 13 -10 123 12 62 21 83 42 102 35 31 59 28 55 -5z m-1692
9 c0 -6 -5 -19 -11 -30 -8 -15 -7 -24 2 -35 16 -19 6 -28 -26 -20 -24 6 -36
26 -15 26 5 0 7 6 4 14 -7 19 13 56 31 56 8 0 15 -5 15 -11z m1207 -21 c-8
-24 -12 -28 -15 -15 -5 23 4 47 17 47 6 0 5 -13 -2 -32z m741 1 c81 -11 176
-25 212 -32 l65 -12 -87 -3 c-118 -4 -113 -22 6 -22 72 0 96 -4 106 -15 20
-24 5 -31 -125 -59 -66 -14 -190 -41 -275 -60 -162 -38 -200 -42 -200 -26 0
16 61 223 72 243 8 15 17 18 44 12 19 -3 101 -15 182 -26z m-1790 1 c26 -24
26 -24 8 -39 -11 -10 -17 -6 -30 20 -24 47 -16 54 22 19z m1121 -7 l30 -28
-24 -250 c-56 -565 -49 -530 -101 -490 l-36 28 6 96 c3 53 11 186 16 295 8
148 15 217 31 270 11 39 23 79 25 89 7 24 19 21 53 -10z m-1214 -37 c21 -29
26 -43 18 -55 -14 -22 -38 -20 -38 4 0 11 -6 24 -12 28 -7 4 -13 24 -13 44 0
39 1 39 45 -21z m50 23 c12 -55 -12 -48 -46 14 -8 14 -6 17 15 17 19 0 26 -7
31 -31z m1046 -50 c-7 -61 -9 -66 -10 -28 -1 46 8 113 15 106 2 -2 0 -37 -5
-78z m1323 4 c-95 -109 -186 -203 -195 -203 -18 0 -10 126 9 143 24 22 235
137 241 132 2 -3 -23 -35 -55 -72z m-2236 -4 c4 -22 -68 -75 -79 -58 -28 44
15 112 54 86 12 -8 23 -21 25 -28z m1177 -59 c28 -25 68 -60 89 -79 l39 -33
-22 -157 c-32 -229 -63 -358 -90 -377 -12 -9 -42 -33 -67 -55 -52 -45 -55 -45
-96 -22 -29 17 -30 20 -24 73 3 30 19 192 36 360 17 168 33 320 36 339 6 38
-5 43 99 -49z m1119 43 c-9 -21 -79 -193 -155 -383 -77 -190 -163 -399 -190
-465 -28 -66 -61 -145 -73 -175 -32 -76 -43 -71 -108 57 -70 135 -69 143 19
143 47 0 64 3 60 13 -2 7 -21 12 -47 12 -47 0 -60 14 -35 39 12 11 35 16 76
16 38 0 58 4 54 10 -3 6 -26 10 -51 10 -24 0 -44 2 -44 5 0 10 500 755 507
755 2 0 -4 -17 -13 -37z m-1417 -128 c-5 -87 -86 -397 -110 -422 -4 -3 -89 59
-122 89 -19 17 136 308 164 308 23 0 24 1 7 13 -17 13 -17 15 4 58 60 117 66
113 57 -46z m1377 123 c-4 -7 -31 -44 -59 -83 -42 -57 -160 -232 -404 -597
-24 -38 -151 -61 -151 -28 0 13 142 188 289 358 64 74 127 149 141 167 51 64
204 217 184 183z m-2483 -29 l21 -31 -133 -136 c-74 -75 -135 -139 -137 -141
-7 -13 30 72 58 128 18 36 41 90 52 120 37 99 93 124 139 60z m335 -25 c92
-66 93 -63 -30 -109 l-64 -24 -35 59 -35 60 36 29 c48 39 52 39 128 -15z
m-216 11 c12 -22 11 -26 -11 -44 -32 -27 -47 -26 -55 4 -13 51 42 84 66 40z
m593 -12 c39 -176 65 -308 62 -311 -2 -2 -74 51 -161 119 -132 103 -154 124
-138 131 221 94 230 97 237 61z m1477 -16 c-8 -8 -64 -51 -125 -97 -60 -46
-160 -126 -222 -176 -125 -105 -113 -105 -167 5 -19 40 -41 80 -47 87 -35 42
12 78 133 102 62 13 178 38 258 57 167 38 192 42 170 22z m50 -71 l0 -75 -102
-121 c-151 -179 -268 -324 -268 -332 0 -5 -4 -8 -9 -8 -14 0 -124 221 -114
230 4 4 98 79 208 166 110 86 216 170 235 185 49 39 50 38 50 -45z m-2061 16
c39 -61 39 -70 -4 -88 -48 -20 -48 -19 -72 30 l-21 43 31 32 c38 38 29 40 66
-17z m-129 2 c0 -7 -28 -34 -62 -60 -35 -26 -87 -67 -116 -92 -87 -73 -69 -42
44 77 105 110 134 126 134 75z m538 -129 c81 -63 162 -127 180 -140 35 -28 42
-64 17 -85 -28 -23 -18 -68 20 -88 19 -10 54 -166 41 -180 -4 -3 -246 64 -251
70 -58 70 -153 233 -145 248 13 25 13 26 -12 50 -15 14 -30 19 -45 15 -15 -3
-23 -1 -23 7 0 7 -25 45 -55 83 -30 39 -51 71 -47 73 90 37 150 60 160 61 7 1
79 -51 160 -114z m-500 50 c12 -24 18 -46 14 -49 -8 -5 -186 -76 -267 -107
l-50 -19 35 31 c57 50 232 189 239 189 4 0 17 -20 29 -45z m229 -104 c27 -39
43 -71 40 -82 -6 -23 28 -69 51 -69 17 0 148 -187 139 -197 -3 -2 -54 11 -113
29 l-109 34 -33 89 c-37 98 -76 270 -66 286 9 15 38 -14 91 -90z m810 77 c-3
-8 -6 -5 -6 6 -1 11 2 17 5 13 3 -3 4 -12 1 -19z m-902 -130 c14 -54 36 -125
49 -158 21 -51 23 -61 9 -58 -19 4 -21 7 -78 139 -24 58 -52 119 -60 135 -20
40 -20 43 18 59 29 12 32 12 35 -3 2 -9 14 -61 27 -114z m1345 120 c0 -7 -11
-47 -25 -88 -26 -80 -29 -34 -4 63 9 35 29 52 29 25z m-443 -40 c-3 -7 -5 -2
-5 12 0 14 2 19 5 13 2 -7 2 -19 0 -25z m531 -67 l52 -98 -96 -84 c-100 -88
-124 -105 -124 -92 1 41 99 373 111 373 3 0 29 -44 57 -99z m-1542 57 c4 -7 6
-54 5 -105 -2 -82 0 -93 15 -93 15 0 16 8 12 65 -3 36 -2 63 2 60 12 -7 83
-185 77 -191 -9 -9 -443 129 -443 141 0 6 55 31 121 56 67 26 135 54 151 62
35 20 50 21 60 5z m981 -188 c-1 -77 -4 -140 -7 -140 -9 0 -70 40 -70 46 0 35
65 234 76 234 1 0 2 -63 1 -140z m-272 30 c3 -5 1 -10 -4 -10 -6 0 -11 5 -11
10 0 6 2 10 4 10 3 0 8 -4 11 -10z m-846 -59 c102 -33 204 -65 227 -71 43 -13
50 -24 109 -180 23 -60 59 -80 -468 253 -114 71 -99 71 132 -2z m970 -29 l45
-39 -19 -69 c-31 -121 -39 -134 -72 -125 -37 10 -74 182 -46 213 9 10 16 31
15 48 -1 36 8 32 77 -28z m781 50 c0 -4 25 -52 55 -107 30 -54 55 -105 55
-112 0 -22 -74 -16 -95 7 -31 34 -95 10 -95 -35 0 -49 68 -69 102 -30 19 22
58 35 58 20 0 -3 -26 -39 -57 -79 -32 -40 -67 -86 -79 -102 l-20 -28 -90 30
c-72 24 -90 34 -92 51 -2 12 -9 26 -16 32 -25 21 8 161 45 191 17 14 70 57
118 97 79 66 111 85 111 65z m-1780 -107 c63 -40 166 -104 229 -143 63 -40
118 -72 123 -72 4 0 8 -16 8 -35 0 -30 5 -39 35 -56 19 -12 35 -22 35 -23 0
-5 106 -271 170 -426 153 -371 184 -460 118 -335 -17 33 -53 92 -80 130 -26
39 -80 117 -120 175 -140 206 -309 424 -595 767 -98 118 -110 136 -65 107 15
-10 79 -50 142 -89z m93 -260 c217 -270 282 -355 368 -484 l77 -114 -28 -24
c-48 -40 -69 -31 -122 53 -54 84 -57 94 -28 94 11 0 20 5 20 10 0 6 -13 10
-29 10 -24 0 -34 8 -57 47 -15 27 -64 104 -109 173 -45 69 -92 143 -105 165
-13 22 -58 94 -100 160 -142 223 -131 214 113 -90z m264 243 c9 -15 42 -146
42 -168 0 -8 -15 26 -34 75 -19 50 -35 93 -35 98 0 12 18 8 27 -5z m750 -10
c41 -29 40 -27 35 -120 -5 -87 -7 -89 -84 -66 -56 17 -56 36 -3 196 6 17 14
15 52 -10z m-491 -68 c6 0 26 -24 43 -52 17 -29 61 -99 97 -156 80 -125 83
-121 -59 -74 -131 43 -217 94 -217 129 0 12 -11 30 -24 40 -22 16 -66 129 -66
168 0 9 31 3 107 -21 58 -19 112 -34 119 -34z m606 -26 l38 -27 -6 -56 c-8
-69 -5 -65 -48 -51 l-36 12 0 74 c0 84 0 84 52 48z m-435 -29 c121 -36 116
-32 130 -116 20 -129 17 -182 -9 -173 -45 13 -47 15 -192 242 -50 79 -53 87
-31 78 8 -3 54 -17 102 -31z m692 -42 c1 -17 -4 -35 -10 -39 -8 -5 -9 6 -4 35
9 55 -2 52 -16 -4 -12 -49 -15 -51 -54 -33 -36 16 -31 30 22 72 52 41 61 37
62 -31z m445 25 c22 -32 20 -38 -14 -38 -16 0 -30 -4 -30 -10 0 -5 18 -10 41
-10 52 0 50 -15 -15 -120 -54 -87 -52 -85 -68 -73 -7 5 -34 17 -60 27 -58 21
-58 22 -11 83 140 184 132 177 157 141z m101 12 c6 -10 -29 -50 -43 -50 -15 0
-44 38 -37 49 8 14 72 14 80 1z m-712 -38 c16 -17 15 -20 -13 -47 l-30 -29 0
40 c0 57 14 68 43 36z m-335 -17 c3 -3 -14 -72 -26 -105 -6 -16 -20 47 -21 93
-1 26 24 32 47 12z m150 -102 l3 -60 -66 -58 -66 -58 -22 21 c-25 26 -25 84 0
172 9 30 17 60 19 66 2 8 21 6 66 -6 l63 -17 3 -60z m263 58 c45 -46 37 -66
-22 -52 -19 5 -47 12 -64 16 l-30 7 35 29 c43 35 45 35 81 0z m-177 -27 c23
-9 20 -16 -19 -47 l-35 -28 0 41 c0 41 13 50 54 34z m819 -101 c51 -107 57
-129 30 -118 -10 4 -55 20 -100 37 -46 16 -83 32 -83 35 0 14 86 143 96 143 6
0 32 -44 57 -97z m-670 53 c48 -20 48 -20 -24 -110 -99 -123 -110 -110 -82 93
6 49 24 52 106 17z m-136 -106 c-12 -82 -13 -85 -39 -88 l-28 -3 0 70 c0 69 1
72 38 105 45 42 47 36 29 -84z m453 49 c0 -14 -20 -11 -91 12 -35 11 -70 23
-78 25 -10 3 -11 8 -2 18 12 15 171 -37 171 -55z m-126 0 c56 -17 102 -32 104
-34 2 -2 -30 -55 -71 -118 l-75 -115 -71 -16 c-88 -20 -105 -20 -97 -1 3 8 19
67 36 132 38 144 51 183 63 183 6 0 55 -14 111 -31z m235 -30 c28 -12 50 -24
47 -26 -7 -7 -126 29 -126 38 0 14 24 10 79 -12z m-982 -14 c29 -12 71 -60 61
-70 -4 -4 -141 74 -155 89 -10 11 53 -2 94 -19z m321 -81 c-7 -6 -88 19 -88
27 0 5 19 23 43 40 l42 31 3 -47 c2 -26 2 -49 0 -51z m237 0 c-55 -199 -59
-206 -114 -162 -30 23 -41 58 -19 58 21 0 48 32 48 57 0 22 97 149 106 140 2
-2 -7 -43 -21 -93z m403 60 c31 -9 58 -18 60 -19 2 -2 -17 -34 -42 -73 l-45
-69 -92 -17 c-50 -9 -93 -15 -96 -13 -9 10 131 217 144 212 8 -2 39 -12 71
-21z m-864 0 c17 -7 22 -44 6 -44 -9 0 -30 31 -30 44 0 8 5 7 24 0z m993 -10
c-3 -3 -12 -4 -19 -1 -8 3 -5 6 6 6 11 1 17 -2 13 -5z m-928 -28 c10 -12 8
-13 -9 -9 -25 7 -37 23 -17 23 8 0 20 -6 26 -14z m996 -20 c117 -36 117 -37 5
-56 -36 -6 -91 -18 -124 -26 -32 -8 -60 -13 -62 -11 -3 3 65 127 70 127 1 0
50 -15 111 -34z m-872 -19 c31 -13 32 -16 29 -66 l-4 -52 -60 33 c-108 59 -78
132 35 85z m92 -51 c23 -35 16 -91 -10 -91 -17 0 -20 8 -23 58 -3 62 7 72 33
33z m-15 -198 c4 -35 8 -48 9 -30 0 17 6 32 11 32 6 0 8 -10 6 -22 -10 -49
-26 -156 -31 -218 -4 -36 -13 -92 -20 -125 l-14 -60 7 70 c4 39 7 152 6 253
-1 185 11 231 26 100z m-33 -210 c-3 -8 -6 -5 -6 6 -1 11 2 17 5 13 3 -3 4
-12 1 -19z"/></g></g>
  <g transform="translate(0.000000,420.000000) scale(0.100000,-0.100000)" fill="#ffffff" stroke="none"><path d="M2957 3192 c-10 -10 -17 -28 -17 -39 0 -16 -23 -34 -97 -76 -54 -30
-170 -95 -258 -144 -88 -50 -214 -123 -279 -162 -105 -64 -122 -71 -143 -62
-33 15 -39 14 -62 -10 l-19 -21 -431 219 c-308 156 -431 223 -431 235 0 48
-69 64 -97 22 -16 -24 -16 -28 1 -58 17 -32 -46 -359 -75 -391 -5 -5 -9 -20
-9 -33 0 -13 -24 -126 -54 -250 -30 -125 -60 -251 -66 -280 -10 -42 -17 -53
-37 -58 -31 -8 -46 -46 -31 -79 22 -48 -2 -75 -67 -75 -30 0 -55 -4 -55 -9 0
-9 48 -21 86 -21 23 0 23 -2 -24 -97 -27 -54 -68 -144 -93 -200 -24 -57 -49
-103 -56 -103 -20 0 -53 -38 -53 -60 0 -28 35 -60 65 -60 14 0 25 -4 25 -10 0
-5 19 -40 43 -77 24 -37 101 -160 171 -273 70 -113 152 -243 182 -290 30 -47
68 -107 85 -133 l30 -49 -93 4 c-56 2 -95 -1 -98 -7 -3 -6 34 -12 97 -15 l101
-5 51 -78 c28 -43 51 -80 51 -82 0 -3 -52 -2 -115 1 -75 5 -115 4 -115 -3 0
-10 119 -23 206 -23 l42 0 102 -165 c56 -91 106 -167 111 -171 29 -17 11 17
-81 161 -55 87 -99 162 -96 169 3 6 8 1 11 -10 15 -48 105 -47 105 1 0 50 18
24 130 -185 53 -99 80 -140 92 -140 21 0 21 1 9 32 -6 13 -60 158 -122 323
-61 165 -118 313 -126 328 -8 16 -13 33 -11 39 8 23 223 -428 317 -665 13 -31
28 -57 33 -57 31 0 -159 423 -354 790 -94 176 -91 180 63 95 175 -97 254 -150
257 -174 5 -30 46 -55 77 -47 20 5 25 3 25 -13 0 -11 9 -95 19 -188 11 -92 23
-234 27 -315 4 -88 11 -148 17 -148 14 0 1 256 -23 471 -23 202 -27 191 47
146 l58 -35 -6 -144 c-4 -79 -10 -209 -14 -290 -7 -134 -6 -148 9 -148 11 0
16 10 17 33 l2 32 6 -35 7 -35 12 40 c27 94 76 420 66 437 -3 4 6 12 21 18 14
5 30 21 37 35 15 33 31 32 26 -2 -9 -50 -98 -387 -120 -450 -21 -59 -19 -88 2
-67 6 6 34 106 65 224 30 118 62 240 72 270 l18 55 73 14 c93 18 92 21 26 -95
-101 -173 -225 -456 -209 -473 9 -9 22 13 39 69 24 76 93 220 183 382 l76 137
51 11 c137 28 148 29 141 12 -3 -8 -51 -92 -106 -186 -56 -94 -126 -214 -157
-266 -30 -52 -63 -110 -74 -127 -15 -24 -16 -33 -6 -33 7 0 26 24 42 53 34 60
195 334 283 482 l59 99 160 32 c87 18 161 31 163 29 5 -5 -7 -20 -198 -254
l-165 -201 -63 0 c-35 0 -63 -4 -63 -10 0 -5 25 -10 55 -10 l56 0 -23 -30
c-18 -24 -29 -30 -60 -30 -24 0 -37 -4 -33 -10 3 -6 17 -10 31 -10 l25 0 -23
-30 c-20 -28 -26 -30 -85 -30 -35 0 -63 -4 -63 -10 0 -5 23 -10 50 -10 56 0
59 -4 28 -37 -17 -19 -19 -23 -5 -23 8 0 25 13 37 30 l21 30 140 0 c91 0 138
4 134 10 -4 6 -57 10 -126 10 -125 0 -130 2 -100 38 17 19 29 22 95 22 93 0
101 18 10 22 l-66 3 22 28 c21 27 23 27 136 27 145 0 153 18 9 22 l-105 3 170
210 c93 116 177 211 187 213 76 12 93 34 68 84 -18 37 -17 40 43 178 25 58
127 309 227 558 145 363 186 456 205 465 50 26 52 98 2 105 -26 4 -71 89 -232
442 -57 124 -141 308 -187 409 -75 164 -83 189 -78 223 11 65 -48 105 -88 60z
m-47 -279 c-79 -259 -161 -517 -165 -522 -12 -11 -235 109 -235 127 0 28 -25
45 -60 40 -16 -3 -30 -2 -30 1 0 12 535 541 538 532 2 -5 -20 -85 -48 -178z
m-1261 -39 c234 -119 427 -219 429 -223 1 -4 -59 -41 -134 -84 l-136 -77 -83
0 c-112 0 -117 -16 -7 -23 85 -5 88 -4 142 27 30 18 78 45 105 60 l50 27 -35
-31 c-133 -120 -162 -142 -173 -131 -21 21 -165 14 -177 -9 -10 -18 -9 -20 12
-16 110 23 188 15 152 -15 -20 -17 -190 -27 -180 -10 11 18 -9 13 -37 -9 -21
-17 -30 -18 -53 -10 -40 15 -74 -10 -74 -54 0 -19 6 -36 13 -39 6 -2 8 -8 4
-13 -4 -5 -12 -2 -17 6 -7 11 -11 12 -25 0 -14 -11 -18 -10 -31 8 -8 12 -23
22 -33 22 -37 0 -55 -46 -26 -70 37 -31 17 -41 -189 -100 -128 -37 -122 -39
-107 52 7 40 23 161 37 268 32 259 32 260 55 260 11 0 19 5 19 10 0 6 -7 10
-15 10 -19 0 -19 2 5 156 11 71 20 143 20 161 0 28 22 52 59 62 2 1 195 -96
430 -215z m1422 101 c28 -60 100 -220 161 -355 60 -135 143 -314 184 -399 41
-85 74 -158 74 -162 0 -22 2 -23 -587 254 -73 34 -133 65 -133 69 0 3 38 127
84 275 46 147 94 305 107 351 31 114 44 110 110 -33z m-420 -149 c-134 -134
-247 -250 -252 -257 -8 -13 -192 62 -206 84 -10 16 29 43 247 169 361 209 445
256 449 252 3 -3 -105 -114 -238 -248z m-1562 -110 c-9 -8 -10 -5 -5 14 3 14
6 32 7 40 1 8 4 2 6 -14 3 -16 -1 -34 -8 -40z m-4 -48 c-2 -7 -14 -88 -26
-180 -22 -163 -23 -168 -46 -168 -18 0 -23 -5 -23 -25 0 -18 5 -25 20 -25 23
0 23 -5 7 -110 -12 -72 -13 -75 -45 -84 -53 -15 -55 -38 49 405 21 92 39 174
39 183 0 9 7 16 15 16 8 0 13 -6 10 -12z m1045 -116 c0 -87 -10 -123 -32 -116
-22 7 -47 -11 -58 -42 -6 -15 -21 -24 -47 -29 -21 -3 -65 -18 -98 -31 -98 -41
-112 -44 -126 -27 -10 11 -10 16 0 22 6 4 49 42 94 85 232 217 267 235 267
138z m154 27 l87 -40 -22 -27 c-15 -19 -33 -28 -62 -32 -36 -4 -43 -9 -51 -36
-7 -24 -17 -33 -48 -41 -50 -13 -51 -10 -42 100 10 135 11 136 138 76z m129
-123 c-13 -22 -68 -86 -74 -86 -18 0 5 107 29 133 l26 27 13 -31 c7 -17 10
-36 6 -43z m206 -35 c55 -27 106 -51 112 -53 10 -3 -33 -160 -85 -308 -14 -43
-50 -53 -73 -21 -8 12 -25 21 -37 21 -25 0 -47 33 -144 210 l-41 75 41 53 c26
33 48 52 62 52 11 0 28 5 36 10 22 14 19 15 129 -39z m-367 -36 c10 -10 -32
-141 -69 -214 -55 -108 -66 -105 -58 15 10 171 13 181 43 193 30 10 76 14 84
6z m68 -39 c0 -7 -6 -20 -13 -30 -12 -16 -13 -14 -9 18 4 32 22 43 22 12z
m-36 -23 c-4 -21 -13 -47 -20 -58 -18 -25 -17 -20 1 43 18 61 29 69 19 15z
m826 -133 c189 -87 348 -164 354 -170 10 -11 -433 -7 -724 5 -88 4 -85 -15
-29 170 48 156 47 155 52 155 2 0 158 -72 347 -160z m-1362 138 c-6 -16 -137
-49 -165 -41 -22 5 -31 32 -16 46 12 13 185 8 181 -5z m314 -83 c-1 -50 -6
-109 -10 -133 l-7 -42 -157 77 c-143 69 -196 105 -135 90 12 -4 29 -2 37 4 11
8 9 9 -10 5 -15 -4 -9 2 15 14 22 11 45 20 50 20 6 0 44 14 85 30 41 16 89 29
105 27 l30 -2 -3 -90z m46 -27 c-3 -62 -7 -116 -7 -120 -1 -5 -8 -8 -17 -8
-12 0 -14 7 -10 28 3 15 8 65 12 112 3 47 8 88 11 93 14 24 17 -6 11 -105z
m317 -49 c37 -66 63 -124 59 -130 -7 -11 -210 -6 -222 5 -15 16 11 125 31 130
21 6 21 7 5 20 -24 18 -23 31 8 84 32 54 24 61 119 -109z m-775 101 c0 -5 -8
-10 -17 -10 -15 0 -16 2 -3 10 19 12 20 12 20 0z m105 0 c-3 -5 -16 -10 -28
-10 -18 0 -19 2 -7 10 20 13 43 13 35 0z m-174 -21 c21 -18 16 -38 -11 -39 -8
0 -28 49 -22 55 7 7 6 8 33 -16z m-53 -36 c4 -25 -1 -28 -114 -62 -93 -28
-109 -26 -52 6 35 19 45 29 38 38 -8 9 -3 15 17 23 70 27 107 25 111 -5z m727
-55 c-11 -113 -13 -118 -46 -118 -39 0 -38 22 6 110 43 86 49 87 40 8z m-389
-27 c180 -85 199 -101 137 -121 -21 -7 -105 -41 -186 -76 -162 -70 -162 -70
-171 -21 -3 18 -22 82 -41 142 -19 61 -31 111 -27 113 4 1 25 11 47 21 58 28
56 28 241 -58z m-376 16 c0 -4 -193 -173 -247 -216 -43 -34 -103 -32 -103 3 0
42 141 151 237 183 97 32 113 36 113 30z m100 -122 c17 -60 35 -122 40 -137 5
-15 6 -29 2 -32 -23 -12 -237 -99 -247 -99 -17 0 -155 103 -155 116 0 7 35 40
78 74 42 34 113 93 157 131 94 82 84 86 125 -53z m-328 85 c-27 -22 -97 -45
-169 -56 -72 -10 -48 3 73 41 129 40 125 39 96 15z m-95 -106 c-54 -53 -59
-55 -80 -41 -52 34 13 83 128 95 6 1 -16 -24 -48 -54z m1067 8 c3 -5 2 -21 -2
-36 l-7 -27 -28 21 c-36 29 -35 50 2 50 17 0 32 -4 35 -8z m173 -2 c42 0 55
-4 60 -17 3 -10 14 -25 24 -33 17 -14 -3 -221 -21 -220 -3 0 -41 32 -85 71
-44 40 -92 82 -107 95 -57 50 -37 119 31 110 24 -3 68 -6 98 -6z m-1447 -10
c0 -5 -2 -10 -4 -10 -3 0 -8 5 -11 10 -3 6 -1 10 4 10 6 0 11 -4 11 -10z
m1089 -50 c-24 -108 -73 -160 -152 -160 -36 0 -56 -4 -52 -10 3 -5 30 -10 60
-10 48 0 53 -2 48 -20 -5 -18 -14 -20 -89 -20 -49 0 -84 -4 -84 -10 0 -6 32
-10 75 -10 l75 0 -70 -140 c-94 -187 -95 -186 -147 65 -19 88 -36 171 -39 185
-5 25 1 29 183 107 205 88 207 89 192 23z m1244 42 l168 -7 -86 -47 c-116 -63
-125 -66 -125 -34 0 55 -65 86 -93 45 l-15 -21 -134 21 c-73 11 -180 27 -237
35 -56 8 -104 16 -106 18 -5 5 437 -2 628 -10z m-681 -32 c-9 -84 -63 -220
-87 -220 -30 0 -31 13 -10 123 12 62 21 83 42 102 35 31 59 28 55 -5z m-1692
9 c0 -6 -5 -19 -11 -30 -8 -15 -7 -24 2 -35 16 -19 6 -28 -26 -20 -24 6 -36
26 -15 26 5 0 7 6 4 14 -7 19 13 56 31 56 8 0 15 -5 15 -11z m1207 -21 c-8
-24 -12 -28 -15 -15 -5 23 4 47 17 47 6 0 5 -13 -2 -32z m741 1 c81 -11 176
-25 212 -32 l65 -12 -87 -3 c-118 -4 -113 -22 6 -22 72 0 96 -4 106 -15 20
-24 5 -31 -125 -59 -66 -14 -190 -41 -275 -60 -162 -38 -200 -42 -200 -26 0
16 61 223 72 243 8 15 17 18 44 12 19 -3 101 -15 182 -26z m-1790 1 c26 -24
26 -24 8 -39 -11 -10 -17 -6 -30 20 -24 47 -16 54 22 19z m1121 -7 l30 -28
-24 -250 c-56 -565 -49 -530 -101 -490 l-36 28 6 96 c3 53 11 186 16 295 8
148 15 217 31 270 11 39 23 79 25 89 7 24 19 21 53 -10z m-1214 -37 c21 -29
26 -43 18 -55 -14 -22 -38 -20 -38 4 0 11 -6 24 -12 28 -7 4 -13 24 -13 44 0
39 1 39 45 -21z m50 23 c12 -55 -12 -48 -46 14 -8 14 -6 17 15 17 19 0 26 -7
31 -31z m1046 -50 c-7 -61 -9 -66 -10 -28 -1 46 8 113 15 106 2 -2 0 -37 -5
-78z m1323 4 c-95 -109 -186 -203 -195 -203 -18 0 -10 126 9 143 24 22 235
137 241 132 2 -3 -23 -35 -55 -72z m-2236 -4 c4 -22 -68 -75 -79 -58 -28 44
15 112 54 86 12 -8 23 -21 25 -28z m1177 -59 c28 -25 68 -60 89 -79 l39 -33
-22 -157 c-32 -229 -63 -358 -90 -377 -12 -9 -42 -33 -67 -55 -52 -45 -55 -45
-96 -22 -29 17 -30 20 -24 73 3 30 19 192 36 360 17 168 33 320 36 339 6 38
-5 43 99 -49z m1119 43 c-9 -21 -79 -193 -155 -383 -77 -190 -163 -399 -190
-465 -28 -66 -61 -145 -73 -175 -32 -76 -43 -71 -108 57 -70 135 -69 143 19
143 47 0 64 3 60 13 -2 7 -21 12 -47 12 -47 0 -60 14 -35 39 12 11 35 16 76
16 38 0 58 4 54 10 -3 6 -26 10 -51 10 -24 0 -44 2 -44 5 0 10 500 755 507
755 2 0 -4 -17 -13 -37z m-1417 -128 c-5 -87 -86 -397 -110 -422 -4 -3 -89 59
-122 89 -19 17 136 308 164 308 23 0 24 1 7 13 -17 13 -17 15 4 58 60 117 66
113 57 -46z m1377 123 c-4 -7 -31 -44 -59 -83 -42 -57 -160 -232 -404 -597
-24 -38 -151 -61 -151 -28 0 13 142 188 289 358 64 74 127 149 141 167 51 64
204 217 184 183z m-2483 -29 l21 -31 -133 -136 c-74 -75 -135 -139 -137 -141
-7 -13 30 72 58 128 18 36 41 90 52 120 37 99 93 124 139 60z m335 -25 c92
-66 93 -63 -30 -109 l-64 -24 -35 59 -35 60 36 29 c48 39 52 39 128 -15z
m-216 11 c12 -22 11 -26 -11 -44 -32 -27 -47 -26 -55 4 -13 51 42 84 66 40z
m593 -12 c39 -176 65 -308 62 -311 -2 -2 -74 51 -161 119 -132 103 -154 124
-138 131 221 94 230 97 237 61z m1477 -16 c-8 -8 -64 -51 -125 -97 -60 -46
-160 -126 -222 -176 -125 -105 -113 -105 -167 5 -19 40 -41 80 -47 87 -35 42
12 78 133 102 62 13 178 38 258 57 167 38 192 42 170 22z m50 -71 l0 -75 -102
-121 c-151 -179 -268 -324 -268 -332 0 -5 -4 -8 -9 -8 -14 0 -124 221 -114
230 4 4 98 79 208 166 110 86 216 170 235 185 49 39 50 38 50 -45z m-2061 16
c39 -61 39 -70 -4 -88 -48 -20 -48 -19 -72 30 l-21 43 31 32 c38 38 29 40 66
-17z m-129 2 c0 -7 -28 -34 -62 -60 -35 -26 -87 -67 -116 -92 -87 -73 -69 -42
44 77 105 110 134 126 134 75z m538 -129 c81 -63 162 -127 180 -140 35 -28 42
-64 17 -85 -28 -23 -18 -68 20 -88 19 -10 54 -166 41 -180 -4 -3 -246 64 -251
70 -58 70 -153 233 -145 248 13 25 13 26 -12 50 -15 14 -30 19 -45 15 -15 -3
-23 -1 -23 7 0 7 -25 45 -55 83 -30 39 -51 71 -47 73 90 37 150 60 160 61 7 1
79 -51 160 -114z m-500 50 c12 -24 18 -46 14 -49 -8 -5 -186 -76 -267 -107
l-50 -19 35 31 c57 50 232 189 239 189 4 0 17 -20 29 -45z m229 -104 c27 -39
43 -71 40 -82 -6 -23 28 -69 51 -69 17 0 148 -187 139 -197 -3 -2 -54 11 -113
29 l-109 34 -33 89 c-37 98 -76 270 -66 286 9 15 38 -14 91 -90z m810 77 c-3
-8 -6 -5 -6 6 -1 11 2 17 5 13 3 -3 4 -12 1 -19z m-902 -130 c14 -54 36 -125
49 -158 21 -51 23 -61 9 -58 -19 4 -21 7 -78 139 -24 58 -52 119 -60 135 -20
40 -20 43 18 59 29 12 32 12 35 -3 2 -9 14 -61 27 -114z m1345 120 c0 -7 -11
-47 -25 -88 -26 -80 -29 -34 -4 63 9 35 29 52 29 25z m-443 -40 c-3 -7 -5 -2
-5 12 0 14 2 19 5 13 2 -7 2 -19 0 -25z m531 -67 l52 -98 -96 -84 c-100 -88
-124 -105 -124 -92 1 41 99 373 111 373 3 0 29 -44 57 -99z m-1542 57 c4 -7 6
-54 5 -105 -2 -82 0 -93 15 -93 15 0 16 8 12 65 -3 36 -2 63 2 60 12 -7 83
-185 77 -191 -9 -9 -443 129 -443 141 0 6 55 31 121 56 67 26 135 54 151 62
35 20 50 21 60 5z m981 -188 c-1 -77 -4 -140 -7 -140 -9 0 -70 40 -70 46 0 35
65 234 76 234 1 0 2 -63 1 -140z m-272 30 c3 -5 1 -10 -4 -10 -6 0 -11 5 -11
10 0 6 2 10 4 10 3 0 8 -4 11 -10z m-846 -59 c102 -33 204 -65 227 -71 43 -13
50 -24 109 -180 23 -60 59 -80 -468 253 -114 71 -99 71 132 -2z m970 -29 l45
-39 -19 -69 c-31 -121 -39 -134 -72 -125 -37 10 -74 182 -46 213 9 10 16 31
15 48 -1 36 8 32 77 -28z m781 50 c0 -4 25 -52 55 -107 30 -54 55 -105 55
-112 0 -22 -74 -16 -95 7 -31 34 -95 10 -95 -35 0 -49 68 -69 102 -30 19 22
58 35 58 20 0 -3 -26 -39 -57 -79 -32 -40 -67 -86 -79 -102 l-20 -28 -90 30
c-72 24 -90 34 -92 51 -2 12 -9 26 -16 32 -25 21 8 161 45 191 17 14 70 57
118 97 79 66 111 85 111 65z m-1780 -107 c63 -40 166 -104 229 -143 63 -40
118 -72 123 -72 4 0 8 -16 8 -35 0 -30 5 -39 35 -56 19 -12 35 -22 35 -23 0
-5 106 -271 170 -426 153 -371 184 -460 118 -335 -17 33 -53 92 -80 130 -26
39 -80 117 -120 175 -140 206 -309 424 -595 767 -98 118 -110 136 -65 107 15
-10 79 -50 142 -89z m93 -260 c217 -270 282 -355 368 -484 l77 -114 -28 -24
c-48 -40 -69 -31 -122 53 -54 84 -57 94 -28 94 11 0 20 5 20 10 0 6 -13 10
-29 10 -24 0 -34 8 -57 47 -15 27 -64 104 -109 173 -45 69 -92 143 -105 165
-13 22 -58 94 -100 160 -142 223 -131 214 113 -90z m264 243 c9 -15 42 -146
42 -168 0 -8 -15 26 -34 75 -19 50 -35 93 -35 98 0 12 18 8 27 -5z m750 -10
c41 -29 40 -27 35 -120 -5 -87 -7 -89 -84 -66 -56 17 -56 36 -3 196 6 17 14
15 52 -10z m-491 -68 c6 0 26 -24 43 -52 17 -29 61 -99 97 -156 80 -125 83
-121 -59 -74 -131 43 -217 94 -217 129 0 12 -11 30 -24 40 -22 16 -66 129 -66
168 0 9 31 3 107 -21 58 -19 112 -34 119 -34z m606 -26 l38 -27 -6 -56 c-8
-69 -5 -65 -48 -51 l-36 12 0 74 c0 84 0 84 52 48z m-435 -29 c121 -36 116
-32 130 -116 20 -129 17 -182 -9 -173 -45 13 -47 15 -192 242 -50 79 -53 87
-31 78 8 -3 54 -17 102 -31z m692 -42 c1 -17 -4 -35 -10 -39 -8 -5 -9 6 -4 35
9 55 -2 52 -16 -4 -12 -49 -15 -51 -54 -33 -36 16 -31 30 22 72 52 41 61 37
62 -31z m445 25 c22 -32 20 -38 -14 -38 -16 0 -30 -4 -30 -10 0 -5 18 -10 41
-10 52 0 50 -15 -15 -120 -54 -87 -52 -85 -68 -73 -7 5 -34 17 -60 27 -58 21
-58 22 -11 83 140 184 132 177 157 141z m101 12 c6 -10 -29 -50 -43 -50 -15 0
-44 38 -37 49 8 14 72 14 80 1z m-712 -38 c16 -17 15 -20 -13 -47 l-30 -29 0
40 c0 57 14 68 43 36z m-335 -17 c3 -3 -14 -72 -26 -105 -6 -16 -20 47 -21 93
-1 26 24 32 47 12z m150 -102 l3 -60 -66 -58 -66 -58 -22 21 c-25 26 -25 84 0
172 9 30 17 60 19 66 2 8 21 6 66 -6 l63 -17 3 -60z m263 58 c45 -46 37 -66
-22 -52 -19 5 -47 12 -64 16 l-30 7 35 29 c43 35 45 35 81 0z m-177 -27 c23
-9 20 -16 -19 -47 l-35 -28 0 41 c0 41 13 50 54 34z m819 -101 c51 -107 57
-129 30 -118 -10 4 -55 20 -100 37 -46 16 -83 32 -83 35 0 14 86 143 96 143 6
0 32 -44 57 -97z m-670 53 c48 -20 48 -20 -24 -110 -99 -123 -110 -110 -82 93
6 49 24 52 106 17z m-136 -106 c-12 -82 -13 -85 -39 -88 l-28 -3 0 70 c0 69 1
72 38 105 45 42 47 36 29 -84z m453 49 c0 -14 -20 -11 -91 12 -35 11 -70 23
-78 25 -10 3 -11 8 -2 18 12 15 171 -37 171 -55z m-126 0 c56 -17 102 -32 104
-34 2 -2 -30 -55 -71 -118 l-75 -115 -71 -16 c-88 -20 -105 -20 -97 -1 3 8 19
67 36 132 38 144 51 183 63 183 6 0 55 -14 111 -31z m235 -30 c28 -12 50 -24
47 -26 -7 -7 -126 29 -126 38 0 14 24 10 79 -12z m-982 -14 c29 -12 71 -60 61
-70 -4 -4 -141 74 -155 89 -10 11 53 -2 94 -19z m321 -81 c-7 -6 -88 19 -88
27 0 5 19 23 43 40 l42 31 3 -47 c2 -26 2 -49 0 -51z m237 0 c-55 -199 -59
-206 -114 -162 -30 23 -41 58 -19 58 21 0 48 32 48 57 0 22 97 149 106 140 2
-2 -7 -43 -21 -93z m403 60 c31 -9 58 -18 60 -19 2 -2 -17 -34 -42 -73 l-45
-69 -92 -17 c-50 -9 -93 -15 -96 -13 -9 10 131 217 144 212 8 -2 39 -12 71
-21z m-864 0 c17 -7 22 -44 6 -44 -9 0 -30 31 -30 44 0 8 5 7 24 0z m993 -10
c-3 -3 -12 -4 -19 -1 -8 3 -5 6 6 6 11 1 17 -2 13 -5z m-928 -28 c10 -12 8
-13 -9 -9 -25 7 -37 23 -17 23 8 0 20 -6 26 -14z m996 -20 c117 -36 117 -37 5
-56 -36 -6 -91 -18 -124 -26 -32 -8 -60 -13 -62 -11 -3 3 65 127 70 127 1 0
50 -15 111 -34z m-872 -19 c31 -13 32 -16 29 -66 l-4 -52 -60 33 c-108 59 -78
132 35 85z m92 -51 c23 -35 16 -91 -10 -91 -17 0 -20 8 -23 58 -3 62 7 72 33
33z m-15 -198 c4 -35 8 -48 9 -30 0 17 6 32 11 32 6 0 8 -10 6 -22 -10 -49
-26 -156 -31 -218 -4 -36 -13 -92 -20 -125 l-14 -60 7 70 c4 39 7 152 6 253
-1 185 11 231 26 100z m-33 -210 c-3 -8 -6 -5 -6 6 -1 11 2 17 5 13 3 -3 4
-12 1 -19z"/></g>
</svg>
