<svg xmlns="http://www.w3.org/2000/svg" viewBox="0 0 512 512" width="512" height="512"><line x1="204" y1="150" x2="308" y2="150" stroke="#111827" stroke-width="3.5" stroke-linecap="round"/><line x1="308" y1="150" x2="396" y2="250" stroke="#111827" stroke-width="3.5" stroke-linecap="round"/><line x1="396" y1="250" x2="256" y2="432" stroke="#111827" stroke-width="3.5" stroke-linecap="round"/><line x1="256" y1="432" x2="116" y2="250" stroke="#111827" stroke-width="3.5" stroke-linecap="round"/><line x1="116" y1="250" x2="204" y2="150" stroke="#111827" stroke-width="3.5" stroke-linecap="round"/><line x1="204" y1="150" x2="256" y2="196" stroke="#111827" stroke-width="3.5" stroke-linecap="round"/><line x1="308" y1="150" x2="256" y2="196" stroke="#111827" stroke-width="3.5" stroke-linecap="round"/><line x1="256" y1="196" x2="256" y2="250" stroke="#111827" stroke-width="3.5" stroke-linecap="round"/><line x1="116" y1="250" x2="196" y2="250" stroke="#111827" stroke-width="3.5" stroke-linecap="round"/><line x1="196" y1="250" x2="256" y2="250" stroke="#111827" stroke-width="3.5" stroke-linecap="round"/><line x1="256" y1="250" x2="316" y2="250" stroke="#111827" stroke-width="3.5" stroke-linecap="round"/><line x1="316" y1="250" x2="396" y2="250" stroke="#111827" stroke-width="3.5" stroke-linecap="round"/><line x1="256" y1="196" x2="116" y2="250" stroke="#111827" stroke-width="3.5" stroke-linecap="round"/><line x1="256" y1="196" x2="396" y2="250" stroke="#111827" stroke-width="3.5" stroke-linecap="round"/><line x1="204" y1="150" x2="256" y2="432" stroke="#111827" stroke-width="3.5" stroke-linecap="round"/><line x1="308" y1="150" x2="256" y2="432" stroke="#111827" stroke-width="3.5" stroke-linecap="round"/><line x1="256" y1="250" x2="256" y2="432" stroke="#111827" stroke-width="3.5" stroke-linecap="round"/><line x1="196" y1="250" x2="256" y2="432" stroke="#111827" stroke-width="3.5" stroke-linecap="round"/><line x1="316" y1="250" x2="256" y2="432" stroke="#111827" stroke-width="3.5" stroke-linecap="round"/><line x1="256" y1="196" x2="256" y2="432" stroke="#111827" stroke-width="3.5" stroke-linecap="round"/><circle cx="204" cy="150" r="7" fill="#111827"/><circle cx="308" cy="150" r="7" fill="#111827"/><circle cx="116" cy="250" r="7" fill="#111827"/><circle cx="396" cy="250" r="7" fill="#111827"/><circle cx="256" cy="196" r="7" fill="#111827"/><circle cx="256" cy="250" r="7" fill="#111827"/><circle cx="196" cy="250" r="7" fill="#111827"/><circle cx="316" cy="250" r="7" fill="#111827"/><circle cx="256" cy="432" r="7" fill="#111827"/><line x1="430" y1="300" x2="452" y2="300" stroke="#111827" stroke-width="3" stroke-linecap="round"/><line x1="440" y1="330" x2="470" y2="330" stroke="#111827" stroke-width="3" stroke-linecap="round"/><line x1="455" y1="360" x2="471" y2="360" stroke="#111827" stroke-width="3" stroke-linecap="round"/><line x1="120" y1="300" x2="138" y2="300" stroke="#111827" stroke-width="3" stroke-linecap="round"/><line x1="430" y1="210" x2="444" y2="210" stroke="#111827" stroke-width="3" stroke-linecap="round"/><line x1="460" y1="250" x2="472" y2="250" stroke="#111827" stroke-width="3" stroke-linecap="round"/><circle cx="470" cy="290" r="3.5" fill="#111827"/><circle cx="150" cy="210" r="3.5" fill="#111827"/><circle cx="440" cy="400" r="3.5" fill="#111827"/><circle cx="110" cy="360" r="3.5" fill="#111827"/></svg>