<svg xmlns="http://www.w3.org/2000/svg" viewBox="0 0 420 420" width="420" height="420" role="img" aria-label="Holographic Memory">
  <g transform="translate(3,3)"><g transform="translate(0.000000,420.000000) scale(0.100000,-0.100000)" fill="#000000" stroke="none"><path d="M2957 3192 c-10 -10 -17 -28 -17 -39 0 -16 -23 -34 -97 -76 -54 -30
-170 -95 -258 -144 -88 -50 -214 -123 -279 -162 -105 -64 -122 -71 -143 -62
-33 15 -39 14 -62 -10 l-19 -21 -431 219 c-308 156 -431 223 -431 235 0 48
-69 64 -97 22 -16 -24 -16 -28 1 -58 17 -32 17 -36 -24 -207 -23 -96 -46 -178
-51 -184 -5 -5 -9 -20 -9 -33 0 -13 -24 -124 -54 -245 -29 -122 -59 -248 -65
-279 -10 -49 -16 -59 -37 -64 -32 -8 -47 -46 -32 -79 8 -19 8 -31 0 -50 -10
-22 -18 -25 -67 -25 -30 0 -55 -4 -55 -9 0 -9 48 -21 86 -21 23 0 23 -2 -24
-97 -27 -54 -68 -144 -93 -200 -24 -57 -49 -103 -56 -103 -20 0 -53 -38 -53
-60 0 -28 35 -60 65 -60 14 0 25 -5 25 -10 0 -6 15 -34 34 -63 18 -28 96 -152
172 -274 77 -123 163 -260 192 -305 29 -46 66 -105 83 -131 l30 -49 -93 4
c-56 2 -95 -1 -98 -7 -3 -6 34 -12 97 -15 l101 -5 51 -78 c28 -43 51 -80 51
-82 0 -3 -52 -2 -115 1 -75 5 -115 4 -115 -3 0 -10 119 -23 206 -23 l42 0 102
-165 c56 -91 106 -167 111 -171 29 -17 11 17 -81 161 -55 87 -99 162 -96 169
3 6 8 1 11 -10 10 -33 52 -48 81 -29 13 8 24 22 24 30 0 25 19 17 38 -15 9
-17 51 -93 92 -170 53 -99 80 -140 92 -140 21 0 21 1 9 32 -6 13 -60 158 -122
323 -61 165 -118 313 -126 328 -8 16 -13 33 -11 39 8 23 223 -428 317 -665 13
-31 28 -57 33 -57 31 0 -159 423 -354 790 -67 127 -76 150 -53 150 18 0 175
-85 293 -158 52 -33 78 -56 80 -71 5 -30 46 -55 77 -47 20 5 25 3 25 -13 0
-11 9 -95 19 -188 11 -92 23 -234 27 -315 4 -88 11 -148 17 -148 14 0 1 256
-23 471 -11 95 -18 174 -16 177 3 2 31 -12 63 -31 l58 -35 -6 -144 c-4 -79
-10 -209 -14 -290 -7 -134 -6 -148 9 -148 11 0 16 10 17 33 l2 32 6 -35 7 -35
12 40 c27 94 76 420 66 437 -3 4 6 12 21 18 14 5 30 21 37 35 15 33 31 32 26
-2 -9 -50 -98 -387 -120 -450 -20 -59 -19 -88 2 -67 5 5 34 106 65 224 30 118
62 240 72 270 l18 55 73 14 c40 7 75 11 78 9 2 -3 -21 -50 -52 -104 -101 -173
-225 -456 -209 -473 9 -9 22 13 39 69 24 76 93 220 183 382 l76 137 51 11
c137 28 148 29 141 12 -3 -8 -51 -92 -106 -186 -56 -94 -126 -214 -157 -266
-30 -52 -63 -110 -74 -127 -15 -24 -16 -33 -6 -33 7 0 26 24 42 53 34 60 195
334 283 482 l59 99 160 32 c87 18 161 31 163 29 5 -5 -7 -20 -198 -254 l-165
-201 -63 0 c-35 0 -63 -4 -63 -10 0 -5 25 -10 55 -10 l56 0 -23 -30 c-18 -24
-29 -30 -60 -30 -24 0 -37 -4 -33 -10 3 -6 17 -10 31 -10 l25 0 -23 -30 c-20
-28 -26 -30 -85 -30 -35 0 -63 -4 -63 -10 0 -5 23 -10 50 -10 28 0 50 -3 50
-7 0 -4 -10 -17 -22 -30 -17 -19 -19 -23 -5 -23 8 0 25 13 37 30 l21 30 140 0
c91 0 138 4 134 10 -4 6 -57 10 -126 10 -65 0 -119 3 -119 8 1 4 9 17 19 30
17 19 29 22 95 22 93 0 101 18 10 22 l-66 3 22 28 c21 27 23 27 136 27 145 0
153 18 9 22 l-105 3 170 210 c93 116 177 211 187 213 76 12 93 33 68 86 -16
34 -16 35 46 183 34 81 139 341 234 576 137 343 176 431 195 440 13 7 28 20
34 29 15 25 -4 72 -32 76 -26 4 -71 89 -232 442 -57 124 -141 308 -187 409
-75 164 -83 189 -78 223 5 30 3 44 -11 59 -22 24 -56 24 -77 1z m-47 -279
c-79 -259 -161 -517 -165 -522 -2 -2 -56 22 -119 52 -89 43 -116 60 -116 75 0
28 -25 45 -60 40 -16 -3 -30 -2 -30 1 0 12 535 541 538 532 2 -5 -20 -85 -48
-178z m-1259 -40 c236 -120 429 -220 429 -223 0 -3 -61 -40 -136 -83 l-136
-77 -83 0 c-46 0 -86 -4 -89 -9 -3 -4 34 -11 82 -14 85 -5 88 -4 142 27 30 18
78 45 105 60 l50 27 -35 -31 c-133 -120 -162 -142 -173 -131 -6 6 -44 11 -89
11 -68 0 -79 -2 -89 -21 -10 -19 -9 -21 18 -16 15 3 58 9 96 12 68 7 82 0 51
-26 -20 -17 -190 -27 -180 -10 11 18 -9 13 -37 -9 -21 -17 -30 -18 -53 -10
-40 15 -74 -10 -74 -54 0 -19 6 -36 13 -39 6 -2 8 -8 4 -13 -4 -5 -12 -2 -17
6 -7 11 -11 12 -25 0 -14 -11 -18 -10 -31 8 -8 12 -23 22 -33 22 -37 0 -55
-46 -26 -70 37 -31 17 -41 -189 -100 -59 -17 -111 -29 -114 -26 -3 3 0 38 7
78 7 40 23 161 37 268 32 259 32 260 55 260 11 0 19 5 19 10 0 6 -7 10 -15 10
-19 0 -19 2 5 156 11 71 20 143 20 161 0 25 6 35 28 46 15 8 29 15 31 16 2 1
197 -97 432 -216z m1420 102 c28 -60 100 -220 161 -355 60 -135 143 -314 184
-399 41 -85 74 -158 74 -162 0 -22 2 -23 -587 254 -73 34 -133 65 -133 69 0 3
38 127 84 275 46 147 94 305 107 351 31 114 44 110 110 -33z m-421 -149 c-134
-135 -247 -250 -251 -257 -5 -9 -32 -2 -104 31 -53 24 -98 48 -102 53 -10 16
29 43 247 169 359 208 445 256 449 252 3 -2 -105 -114 -239 -248z m-1561 -110
c-9 -8 -10 -5 -5 14 3 14 6 32 7 40 1 8 4 2 6 -14 3 -16 -1 -34 -8 -40z m-4
-48 c-2 -7 -14 -88 -26 -180 -22 -163 -23 -168 -46 -168 -18 0 -23 -5 -23 -25
0 -18 5 -25 20 -25 23 0 23 -5 7 -110 -12 -72 -13 -75 -45 -84 -18 -5 -35 -6
-38 -3 -6 6 13 95 87 408 21 92 39 174 39 183 0 9 7 16 15 16 8 0 13 -6 10
-12z m1045 -116 c0 -26 -3 -64 -6 -85 -6 -31 -10 -36 -26 -31 -22 7 -47 -11
-58 -42 -6 -15 -21 -24 -47 -29 -21 -3 -65 -18 -98 -31 -98 -41 -112 -44 -126
-27 -10 11 -10 16 0 22 6 4 49 42 94 85 162 151 230 204 250 194 12 -6 17 -21
17 -56z m154 27 l87 -40 -22 -27 c-15 -19 -33 -28 -62 -32 -36 -4 -43 -9 -51
-36 -7 -24 -17 -33 -48 -41 -22 -6 -41 -7 -44 -1 -9 14 7 192 18 206 16 18 28
16 122 -29z m129 -123 c-13 -22 -68 -86 -74 -86 -3 0 -4 24 -1 53 3 38 11 59
30 80 l26 27 13 -31 c7 -17 10 -36 6 -43z m206 -35 c55 -27 106 -51 112 -53
10 -3 -33 -160 -85 -308 -14 -43 -50 -53 -73 -21 -8 12 -25 21 -37 21 -25 0
-47 33 -144 210 l-41 75 41 53 c26 33 48 52 62 52 11 0 28 5 36 10 22 14 19
15 129 -39z m-367 -36 c10 -10 -32 -141 -69 -214 -55 -108 -66 -105 -58 15 10
171 13 181 43 193 30 10 76 14 84 6z m68 -39 c0 -7 -6 -20 -13 -30 -12 -16
-13 -14 -9 18 4 32 22 43 22 12z m-36 -23 c-4 -21 -13 -47 -20 -58 -18 -25
-17 -20 1 43 18 61 29 69 19 15z m826 -133 c189 -87 348 -164 354 -170 8 -9
-75 -10 -319 -5 -487 10 -481 9 -476 32 2 15 73 252 86 291 2 6 6 12 8 12 2 0
158 -72 347 -160z m-1362 138 c-6 -16 -137 -49 -165 -41 -22 5 -31 32 -16 46
3 4 46 7 96 7 65 0 88 -3 85 -12z m314 -83 c-1 -50 -6 -109 -10 -133 l-7 -42
-157 77 c-87 42 -158 81 -158 86 0 5 10 7 23 4 12 -4 29 -2 37 4 11 8 9 9 -10
5 -21 -5 -20 -4 5 8 78 37 223 85 250 83 l30 -2 -3 -90z m46 -27 c-3 -62 -7
-116 -7 -120 -1 -5 -8 -8 -17 -8 -12 0 -15 6 -11 23 3 12 9 63 12 112 4 50 9
93 12 98 14 24 17 -6 11 -105z m312 -41 c39 -70 68 -132 64 -139 -5 -7 -38 -9
-112 -4 -58 3 -107 8 -110 10 -2 3 -1 32 3 64 6 50 10 61 28 66 21 6 21 7 5
20 -10 7 -18 19 -18 26 0 23 52 102 60 93 5 -4 41 -65 80 -136z m-770 93 c0
-5 -8 -10 -17 -10 -15 0 -16 2 -3 10 19 12 20 12 20 0z m105 0 c-3 -5 -16 -10
-28 -10 -18 0 -19 2 -7 10 20 13 43 13 35 0z m-174 -21 c19 -17 21 -22 9 -29
-8 -6 -17 -10 -20 -10 -8 0 -28 49 -22 55 7 7 6 8 33 -16z m-53 -36 c4 -25 -1
-28 -114 -62 -93 -28 -109 -26 -52 6 35 19 45 29 38 38 -8 9 -3 15 17 23 70
27 107 25 111 -5z m727 -55 c-11 -113 -13 -118 -46 -118 -22 0 -29 5 -29 20 0
21 66 160 76 160 3 0 3 -28 -1 -62z m-389 -27 c93 -44 170 -86 172 -94 2 -10
-11 -20 -35 -27 -21 -7 -105 -41 -186 -76 -82 -35 -152 -62 -157 -59 -4 3 -11
20 -14 38 -3 18 -22 82 -41 142 -19 61 -31 111 -27 113 4 1 25 11 47 21 22 11
47 20 56 20 8 1 92 -35 185 -78z m-376 16 c0 -4 -193 -173 -247 -216 -39 -31
-44 -33 -73 -21 -16 7 -30 18 -30 24 0 6 31 43 70 81 65 65 76 71 167 102 97
32 113 36 113 30z m100 -122 c17 -60 36 -123 40 -138 8 -24 6 -29 -13 -36 -12
-5 -65 -28 -117 -51 -52 -22 -102 -42 -110 -43 -19 -1 -160 101 -160 116 0 7
35 40 78 74 42 34 113 93 157 131 44 39 83 67 86 64 4 -4 21 -56 39 -117z
m-328 85 c-27 -22 -97 -45 -169 -56 -72 -10 -48 3 73 41 129 40 125 39 96 15z
m-95 -106 c-54 -53 -59 -55 -80 -41 -42 28 -28 49 48 73 39 12 75 22 80 23 6
0 -16 -25 -48 -55z m1067 8 c3 -5 2 -21 -2 -36 l-7 -27 -28 21 c-36 29 -35 50
2 50 17 0 32 -4 35 -8z m173 -2 c42 0 55 -4 60 -17 3 -10 14 -25 24 -33 17
-14 17 -20 1 -117 -9 -57 -19 -103 -22 -103 -3 0 -41 32 -85 71 -44 40 -92 82
-107 95 -22 19 -28 33 -28 62 0 21 3 42 8 46 4 4 27 5 51 2 24 -3 68 -6 98 -6z
m-1447 -10 c0 -5 -2 -10 -4 -10 -3 0 -8 5 -11 10 -3 6 -1 10 4 10 6 0 11 -4
11 -10z m1089 -50 c-10 -44 -61 -138 -83 -152 -6 -4 -37 -8 -69 -8 -36 0 -56
-4 -52 -10 3 -5 30 -10 60 -10 48 0 53 -2 48 -20 -5 -18 -14 -20 -89 -20 -49
0 -84 -4 -84 -10 0 -6 32 -10 75 -10 l75 0 -70 -140 c-39 -77 -74 -140 -80
-140 -19 0 -35 49 -67 205 -19 88 -36 171 -39 185 -5 25 1 29 183 107 103 45
191 78 195 75 4 -4 2 -27 -3 -52z m1244 42 l168 -7 -86 -47 c-116 -63 -125
-66 -125 -34 0 31 -32 66 -59 66 -11 0 -26 -9 -34 -21 l-15 -20 -163 25 c-90
13 -191 28 -224 32 -33 4 -68 9 -77 13 -20 7 374 3 615 -7z m-681 -32 c-1 -14
-16 -69 -32 -122 -28 -89 -33 -98 -55 -98 -30 0 -31 13 -10 123 12 62 21 83
42 102 35 31 59 28 55 -5z m-1692 9 c0 -6 -5 -19 -11 -30 -8 -15 -7 -24 2 -35
16 -19 6 -28 -26 -20 -24 6 -36 26 -15 26 5 0 7 6 4 14 -7 19 13 56 31 56 8 0
15 -5 15 -11z m1207 -21 c-8 -24 -12 -28 -15 -15 -5 23 4 47 17 47 6 0 5 -13
-2 -32z m741 1 c81 -11 176 -25 212 -32 l65 -12 -87 -3 c-118 -4 -113 -22 6
-22 72 0 96 -4 106 -15 8 -10 9 -19 4 -24 -5 -5 -63 -21 -129 -35 -66 -14
-190 -41 -275 -60 -162 -38 -200 -42 -200 -26 0 16 61 223 72 243 8 15 17 18
44 12 19 -3 101 -15 182 -26z m-1795 7 c18 -14 23 -41 8 -51 -7 -4 -41 46 -41
62 0 7 16 2 33 -11z m1126 -13 l30 -28 -24 -250 c-37 -368 -52 -506 -59 -512
-3 -3 -22 7 -42 22 l-36 28 6 96 c3 53 11 186 16 295 8 148 15 217 31 270 11
39 23 79 25 89 7 24 19 21 53 -10z m-1214 -37 c21 -29 26 -43 18 -55 -14 -22
-38 -20 -38 4 0 11 -6 24 -12 28 -7 4 -13 24 -13 44 0 39 1 39 45 -21z m50 23
c12 -55 -12 -48 -46 14 -8 14 -6 17 15 17 19 0 26 -7 31 -31z m1046 -50 c-7
-61 -9 -66 -10 -28 -1 46 8 113 15 106 2 -2 0 -37 -5 -78z m1323 4 c-95 -109
-186 -203 -195 -203 -5 0 -9 29 -9 63 0 48 4 68 18 79 24 22 235 138 240 133
3 -3 -22 -35 -54 -72z m-2236 -4 c1 -8 -14 -27 -34 -43 -29 -23 -38 -26 -45
-15 -15 24 -10 58 12 80 18 18 23 19 42 6 12 -8 23 -21 25 -28z m1177 -59 c28
-25 68 -60 89 -79 l39 -33 -22 -157 c-32 -229 -63 -358 -90 -377 -12 -9 -42
-33 -67 -55 -52 -45 -55 -45 -96 -22 -29 17 -30 20 -24 73 3 30 19 192 36 360
17 168 33 320 36 339 6 38 -5 43 99 -49z m1119 43 c-9 -21 -79 -193 -155 -383
-77 -190 -163 -399 -190 -465 -28 -66 -61 -145 -73 -175 -13 -30 -29 -55 -37
-55 -18 0 -131 219 -123 239 5 12 21 16 71 16 47 0 64 3 60 13 -2 6 -19 13
-38 14 -19 1 -40 2 -46 2 -18 1 -16 16 3 35 11 11 34 16 75 16 38 0 58 4 54
10 -3 6 -26 10 -51 10 -24 0 -44 2 -44 5 0 10 500 755 507 755 2 0 -4 -17 -13
-37z m-1417 -128 c-4 -83 -14 -126 -56 -259 -28 -87 -52 -161 -54 -163 -4 -3
-89 59 -122 89 -6 5 19 65 65 158 66 133 77 150 99 150 23 0 24 1 7 13 -17 13
-17 15 4 58 13 24 30 55 39 68 15 23 16 23 20 6 2 -11 1 -65 -2 -120z m1377
123 c-4 -7 -31 -44 -59 -83 -42 -57 -160 -232 -404 -597 -24 -37 -26 -38 -88
-38 -35 0 -63 4 -63 10 0 13 142 188 289 358 64 74 127 149 141 167 27 34 181
195 187 195 3 0 1 -6 -3 -12z m-2483 -29 l21 -31 -133 -136 c-74 -75 -135
-139 -137 -141 -7 -13 30 72 58 128 18 36 41 90 52 120 27 73 44 91 84 91 25
0 38 -7 55 -31z m335 -25 c35 -25 66 -50 69 -54 7 -11 -17 -24 -99 -55 l-64
-24 -35 59 -35 60 36 29 c21 17 43 30 50 31 7 0 42 -21 78 -46z m-216 11 c12
-22 11 -26 -11 -44 -32 -27 -47 -26 -55 4 -4 18 -1 32 11 45 24 26 39 25 55
-5z m593 -12 c39 -176 65 -308 62 -311 -2 -2 -74 51 -161 119 -132 103 -154
124 -138 131 93 40 211 87 220 87 6 1 14 -11 17 -26z m1477 -16 c-8 -8 -64
-51 -125 -97 -60 -46 -160 -126 -222 -176 -82 -69 -114 -90 -121 -81 -6 7 -26
45 -46 86 -19 40 -41 80 -47 87 -9 11 -8 22 4 47 15 32 19 33 129 55 62 13
178 38 258 57 80 18 154 34 165 34 17 1 17 -1 5 -12z m49 -73 l-1 -75 -102
-120 c-149 -177 -266 -323 -266 -331 0 -5 -4 -8 -9 -8 -14 0 -124 221 -114
230 4 4 98 79 208 166 110 86 216 170 235 185 19 16 38 28 43 29 4 0 7 -34 6
-76z m-2060 18 c17 -27 31 -54 31 -61 0 -11 -57 -41 -78 -41 -4 0 -18 20 -29
44 l-21 43 31 32 c17 17 32 31 33 31 1 0 16 -22 33 -48z m-129 2 c0 -7 -28
-34 -62 -60 -35 -26 -87 -67 -116 -92 -29 -24 -55 -42 -58 -40 -2 3 44 55 102
117 85 89 109 109 120 100 8 -6 14 -17 14 -25z m538 -129 c81 -63 162 -127
180 -140 35 -28 42 -64 17 -85 -16 -13 -20 -48 -7 -66 4 -6 16 -16 27 -22 16
-8 23 -27 33 -93 6 -45 10 -85 7 -87 -4 -4 -200 51 -236 66 -9 4 -51 58 -93
120 -62 92 -74 117 -66 132 13 25 13 26 -12 50 -15 14 -30 19 -45 15 -15 -3
-23 -1 -23 7 0 7 -25 44 -54 83 l-55 70 77 31 c42 18 83 33 90 33 7 1 79 -51
160 -114z m-500 50 c12 -24 18 -46 14 -49 -8 -5 -186 -76 -267 -107 l-50 -19
35 31 c57 50 232 189 239 189 4 0 17 -20 29 -45z m229 -104 c27 -39 43 -71 40
-82 -6 -23 28 -69 51 -69 17 0 148 -187 139 -197 -3 -2 -54 11 -113 29 l-109
34 -33 89 c-37 98 -76 270 -66 286 9 15 38 -14 91 -90z m810 77 c-3 -8 -6 -5
-6 6 -1 11 2 17 5 13 3 -3 4 -12 1 -19z m-902 -130 c14 -54 36 -125 49 -158
21 -51 23 -61 9 -58 -19 4 -21 7 -78 139 -24 58 -52 119 -60 135 -20 40 -20
43 18 59 29 12 32 12 35 -3 2 -9 14 -61 27 -114z m1345 120 c0 -7 -11 -47 -25
-88 -24 -73 -24 -74 -19 -25 7 69 23 125 34 125 6 0 10 -6 10 -12z m-443 -40
c-3 -7 -5 -2 -5 12 0 14 2 19 5 13 2 -7 2 -19 0 -25z m531 -67 l52 -98 -96
-84 c-100 -88 -124 -105 -124 -92 1 41 99 373 111 373 3 0 29 -44 57 -99z
m-1542 57 c4 -7 6 -54 5 -105 -2 -82 0 -93 15 -93 15 0 16 8 12 65 -3 36 -2
63 2 60 11 -7 83 -185 77 -192 -9 -8 -443 131 -443 142 0 6 55 31 121 56 67
26 135 54 151 62 35 20 50 21 60 5z m981 -188 c-1 -77 -4 -140 -7 -140 -9 0
-70 40 -70 46 0 35 65 234 76 234 1 0 2 -63 1 -140z m-272 30 c3 -5 1 -10 -4
-10 -6 0 -11 5 -11 10 0 6 2 10 4 10 3 0 8 -4 11 -10z m-861 -55 c93 -30 194
-62 226 -71 l57 -16 27 -66 c41 -100 55 -137 51 -140 -6 -6 -51 21 -478 291
-50 31 -82 57 -71 57 10 0 95 -25 188 -55z m985 -33 l45 -39 -19 -69 c-10 -38
-24 -83 -31 -101 -11 -28 -15 -31 -41 -24 -27 7 -29 12 -45 102 -15 85 -15 96
-1 111 9 10 16 31 15 48 -1 36 8 32 77 -28z m781 50 c0 -4 25 -52 55 -107 30
-54 55 -105 55 -112 0 -22 -74 -16 -95 7 -10 11 -26 20 -37 20 -22 0 -58 -34
-58 -55 0 -22 37 -55 60 -55 11 0 30 11 42 25 19 22 58 35 58 20 0 -3 -26 -39
-57 -79 -32 -40 -67 -86 -79 -102 l-21 -28 -89 30 c-70 25 -90 36 -92 52 -2
11 -9 25 -16 31 -10 8 -10 26 1 88 11 68 17 81 44 103 17 14 70 57 118 97 79
66 111 85 111 65z m-1780 -107 c63 -40 166 -104 229 -143 63 -40 118 -72 123
-72 4 0 8 -16 8 -35 0 -30 5 -39 35 -56 19 -12 35 -22 35 -23 0 -5 106 -271
170 -426 153 -371 184 -460 118 -335 -17 33 -53 92 -80 130 -26 39 -80 117
-120 175 -115 169 -268 368 -485 633 -112 136 -203 250 -203 253 0 4 12 -2 28
-12 15 -10 79 -50 142 -89z m74 -235 c201 -250 303 -383 387 -509 l77 -114
-28 -24 c-48 -40 -69 -31 -122 53 -27 41 -48 79 -48 84 0 6 9 10 20 10 11 0
20 5 20 10 0 6 -13 10 -29 10 -24 0 -34 8 -57 47 -15 27 -64 104 -109 173 -45
69 -92 143 -105 165 -13 22 -58 94 -100 160 -42 66 -82 131 -89 145 -17 34 17
-4 183 -210z m283 218 c9 -15 42 -146 42 -168 0 -8 -15 26 -34 75 -19 50 -35
93 -35 98 0 12 18 8 27 -5z m750 -10 c18 -13 34 -27 36 -33 1 -5 1 -45 -1 -87
-3 -71 -5 -78 -24 -78 -34 0 -100 23 -105 37 -4 10 17 97 42 171 6 17 14 15
52 -10z m-491 -68 c6 0 26 -24 43 -52 17 -29 61 -99 97 -156 36 -57 64 -105
62 -108 -3 -2 -57 13 -121 34 -131 43 -217 94 -217 129 0 12 -11 30 -24 40
-22 16 -66 129 -66 168 0 9 31 3 107 -21 58 -19 112 -34 119 -34z m606 -26
l38 -27 -6 -56 c-4 -31 -8 -58 -10 -59 -1 -2 -19 1 -38 8 l-36 12 0 74 c0 41
3 74 7 74 4 0 24 -12 45 -26z m-435 -29 c49 -15 95 -30 103 -34 16 -9 38 -124
39 -209 1 -51 0 -53 -21 -46 -45 13 -47 15 -192 242 -50 79 -53 87 -31 78 8
-3 54 -17 102 -31z m692 -42 c1 -17 -4 -35 -10 -39 -8 -5 -9 6 -4 35 9 55 -2
52 -16 -4 -12 -49 -15 -51 -54 -33 -36 16 -31 30 22 72 42 33 48 35 55 19 3
-10 7 -32 7 -50z m445 25 c22 -32 20 -38 -14 -38 -16 0 -30 -4 -30 -10 0 -5
18 -10 41 -10 38 0 41 -2 35 -24 -3 -12 -26 -57 -52 -98 l-46 -76 -60 24 c-34
13 -63 26 -65 28 -9 9 151 226 167 226 5 0 16 -10 24 -22z m101 12 c6 -10 -29
-50 -43 -50 -15 0 -44 38 -37 49 8 14 72 14 80 1z m-712 -38 c16 -17 15 -20
-13 -47 l-30 -29 0 40 c0 57 14 68 43 36z m-335 -17 c3 -3 -14 -72 -26 -105
-6 -16 -20 47 -21 93 -1 25 2 27 22 21 12 -3 23 -8 25 -9z m150 -102 l3 -60
-66 -58 -66 -58 -22 21 c-25 26 -25 84 0 172 9 30 17 60 19 66 2 8 21 6 66 -6
l63 -17 3 -60z m263 58 c45 -46 37 -66 -22 -52 -19 5 -47 12 -64 16 l-30 7 35
29 c19 15 39 29 43 29 5 0 22 -13 38 -29z m-177 -27 c23 -9 20 -16 -19 -47
l-35 -28 0 41 c0 41 13 50 54 34z m819 -101 c51 -107 57 -129 30 -118 -10 4
-55 20 -100 37 -46 16 -83 32 -83 35 0 14 86 143 96 143 6 0 32 -44 57 -97z
m-670 53 c20 -8 37 -19 37 -24 0 -21 -123 -162 -141 -162 -22 0 -23 5 -8 123
l12 89 32 -5 c17 -3 48 -12 68 -21z m-136 -106 c-12 -82 -13 -85 -39 -88 l-28
-3 0 70 c0 69 1 72 38 105 45 42 47 36 29 -84z m453 49 c0 -14 -17 -11 -102
17 -61 20 -76 29 -68 39 8 10 27 7 90 -18 44 -16 80 -34 80 -38z m-126 0 c56
-17 102 -32 104 -34 2 -2 -30 -55 -71 -118 l-75 -115 -71 -16 c-88 -20 -105
-20 -97 -1 3 8 19 67 36 132 38 144 51 183 63 183 6 0 55 -14 111 -31z m235
-30 c28 -12 50 -24 47 -26 -7 -7 -126 29 -126 38 0 14 24 10 79 -12z m-982
-14 c29 -12 71 -60 61 -70 -4 -4 -141 74 -155 89 -10 11 53 -2 94 -19z m321
-81 c-7 -6 -77 16 -83 26 -3 5 14 23 37 40 l43 32 3 -47 c2 -26 2 -49 0 -51z
m237 0 c-55 -199 -59 -206 -114 -162 -30 23 -41 58 -19 58 21 0 48 32 48 57 0
15 20 48 52 84 28 32 53 58 54 56 2 -2 -7 -43 -21 -93z m403 60 c31 -9 58 -18
60 -19 2 -2 -17 -34 -42 -73 l-45 -69 -92 -17 c-50 -9 -93 -15 -96 -13 -2 3
26 53 64 111 43 69 72 105 80 101 8 -2 39 -12 71 -21z m-864 0 c17 -7 22 -44
6 -44 -9 0 -30 31 -30 44 0 8 5 7 24 0z m993 -10 c-3 -3 -12 -4 -19 -1 -8 3
-5 6 6 6 11 1 17 -2 13 -5z m-928 -28 c10 -12 8 -13 -9 -9 -25 7 -37 23 -17
23 8 0 20 -6 26 -14z m996 -20 c117 -36 117 -37 5 -56 -36 -6 -91 -18 -124
-26 -32 -8 -60 -13 -62 -11 -3 3 65 127 70 127 1 0 50 -15 111 -34z m-872 -19
c31 -13 32 -16 29 -66 l-4 -52 -60 33 c-53 29 -61 38 -63 66 -3 30 -1 32 31
32 19 0 49 -6 67 -13z m92 -51 c23 -35 16 -91 -10 -91 -17 0 -20 8 -23 58 -3
62 7 72 33 33z m-15 -198 c4 -35 8 -48 9 -30 0 17 6 32 11 32 6 0 8 -10 6 -22
-10 -49 -26 -156 -31 -218 -4 -36 -13 -92 -20 -125 l-14 -60 7 70 c4 39 7 152
6 253 0 120 3 179 9 173 6 -6 13 -38 17 -73z m-33 -210 c-3 -8 -6 -5 -6 6 -1
11 2 17 5 13 3 -3 4 -12 1 -19z"/>
<path d="M2585 2700 c3 -5 46 -10 96 -10 53 0 89 4 89 10 0 6 -39 10 -96 10
-61 0 -93 -4 -89 -10z"/>
<path d="M1130 2670 c0 -6 52 -10 135 -10 83 0 135 4 135 10 0 6 -52 10 -135
10 -83 0 -135 -4 -135 -10z"/>
<path d="M1260 2593 c0 -16 285 -19 295 -3 4 6 -31 11 -97 12 -57 1 -124 2
-150 3 -33 0 -48 -3 -48 -12z"/>
<path d="M1240 2510 c0 -6 35 -10 85 -10 50 0 85 4 85 10 0 6 -35 10 -85 10
-50 0 -85 -4 -85 -10z"/>
<path d="M3050 2696 c0 -10 9 -16 21 -16 24 0 21 23 -4 28 -10 2 -17 -3 -17
-12z"/>
<path d="M2957 2603 c-14 -13 -6 -33 13 -33 13 0 20 7 20 20 0 19 -20 27 -33
13z"/>
<path d="M3105 2550 c-3 -6 1 -13 10 -16 19 -8 30 0 20 15 -8 14 -22 14 -30 1z"/>
<path d="M3187 2322 c-32 -35 -15 -82 28 -82 23 0 55 28 55 48 0 16 -37 52
-53 52 -8 0 -21 -8 -30 -18z"/>
<path d="M1913 2279 c-20 -20 6 -59 39 -59 23 0 28 4 28 25 0 35 -44 57 -67
34z"/>
<path d="M1704 1989 c-10 -17 13 -36 27 -22 12 12 4 33 -11 33 -5 0 -12 -5
-16 -11z"/>
<path d="M1522 1984 c2 -11 8 -18 13 -16 15 3 12 25 -3 30 -9 3 -13 -2 -10
-14z"/>
<path d="M1870 1856 c0 -9 7 -16 16 -16 17 0 14 22 -4 28 -7 2 -12 -3 -12 -12z"/>
<path d="M2705 1920 c-3 -6 0 -13 8 -16 25 -9 90 0 95 14 5 15 -94 17 -103 2z"/>
<path d="M2690 1850 c0 -6 42 -10 105 -10 63 0 105 4 105 10 0 6 -42 10 -105
10 -63 0 -105 -4 -105 -10z"/>
<path d="M2100 3020 c0 -6 42 -10 105 -10 63 0 105 4 105 10 0 6 -42 10 -105
10 -63 0 -105 -4 -105 -10z"/>
<path d="M2100 2960 c0 -6 33 -10 80 -10 47 0 80 4 80 10 0 6 -33 10 -80 10
-47 0 -80 -4 -80 -10z"/>
<path d="M2103 2898 c2 -7 7 -12 10 -10 4 1 30 2 58 2 31 0 48 4 44 10 -9 15
-118 13 -112 -2z"/>
<path d="M3617 2484 c-15 -15 8 -24 64 -24 46 0 59 3 59 15 0 12 -13 15 -58
15 -32 0 -62 -3 -65 -6z"/>
<path d="M3657 2423 c-78 -5 -63 -23 19 -23 46 0 64 4 62 12 -5 14 -9 15 -81
11z"/>
<path d="M3600 2350 c0 -6 30 -10 70 -10 40 0 70 4 70 10 0 6 -30 10 -70 10
-40 0 -70 -4 -70 -10z"/>
<path d="M3600 2290 c0 -6 30 -10 70 -10 40 0 70 4 70 10 0 6 -30 10 -70 10
-40 0 -70 -4 -70 -10z"/>
<path d="M3605 2231 c-6 -11 69 -25 105 -19 13 1 25 9 28 16 5 15 -123 18
-133 3z"/>
<path d="M600 1960 c0 -6 35 -10 84 -10 47 0 88 5 91 10 4 6 -27 10 -84 10
-54 0 -91 -4 -91 -10z"/>
<path d="M3547 1253 c-4 -3 -7 -39 -7 -80 0 -58 3 -73 15 -73 12 0 15 16 15
80 0 73 -6 91 -23 73z"/>
<path d="M3290 1160 c0 -5 18 -10 39 -10 22 0 43 5 46 10 4 6 -12 10 -39 10
-25 0 -46 -4 -46 -10z"/>
<path d="M3176 933 c-12 -12 -6 -33 9 -33 8 0 15 6 15 14 0 17 -14 28 -24 19z"/>
<path d="M3450 820 c0 -6 35 -10 85 -10 50 0 85 4 85 10 0 6 -35 10 -85 10
-50 0 -85 -4 -85 -10z"/>
<path d="M3290 750 c0 -6 50 -10 130 -10 80 0 130 4 130 10 0 6 -50 10 -130
10 -80 0 -130 -4 -130 -10z"/>
<path d="M3343 673 c-24 -2 -43 -8 -43 -14 0 -5 54 -9 126 -9 96 0 125 3 122
13 -5 12 -118 18 -205 10z"/>
<path d="M2975 520 c-3 -5 0 -13 8 -16 23 -9 142 0 142 11 0 14 -142 19 -150
5z"/>
<path d="M3192 370 c-16 -17 -34 -20 -152 -22 -82 -2 -135 -7 -135 -13 0 -6
53 -11 135 -13 118 -2 136 -5 152 -22 24 -25 53 -25 78 0 24 24 25 38 4 68
-19 27 -57 29 -82 2z"/>
<path d="M930 313 c0 -6 17 -13 38 -17 58 -9 152 -7 152 4 0 6 -12 10 -27 10
-16 0 -58 3 -95 7 -44 4 -68 2 -68 -4z"/>
<path d="M940 241 c0 -10 48 -21 91 -21 46 0 34 17 -17 24 -62 8 -74 8 -74 -3z"/>
<path d="M920 168 c0 -12 20 -17 81 -22 45 -4 84 -4 88 -1 12 13 -27 25 -81
25 -31 0 -63 3 -72 6 -10 4 -16 1 -16 -8z"/></g></g>
  <g transform="translate(0.000000,420.000000) scale(0.100000,-0.100000)" fill="#ffffff" stroke="none"><path d="M2957 3192 c-10 -10 -17 -28 -17 -39 0 -16 -23 -34 -97 -76 -54 -30
-170 -95 -258 -144 -88 -50 -214 -123 -279 -162 -105 -64 -122 -71 -143 -62
-33 15 -39 14 -62 -10 l-19 -21 -431 219 c-308 156 -431 223 -431 235 0 48
-69 64 -97 22 -16 -24 -16 -28 1 -58 17 -32 17 -36 -24 -207 -23 -96 -46 -178
-51 -184 -5 -5 -9 -20 -9 -33 0 -13 -24 -124 -54 -245 -29 -122 -59 -248 -65
-279 -10 -49 -16 -59 -37 -64 -32 -8 -47 -46 -32 -79 8 -19 8 -31 0 -50 -10
-22 -18 -25 -67 -25 -30 0 -55 -4 -55 -9 0 -9 48 -21 86 -21 23 0 23 -2 -24
-97 -27 -54 -68 -144 -93 -200 -24 -57 -49 -103 -56 -103 -20 0 -53 -38 -53
-60 0 -28 35 -60 65 -60 14 0 25 -5 25 -10 0 -6 15 -34 34 -63 18 -28 96 -152
172 -274 77 -123 163 -260 192 -305 29 -46 66 -105 83 -131 l30 -49 -93 4
c-56 2 -95 -1 -98 -7 -3 -6 34 -12 97 -15 l101 -5 51 -78 c28 -43 51 -80 51
-82 0 -3 -52 -2 -115 1 -75 5 -115 4 -115 -3 0 -10 119 -23 206 -23 l42 0 102
-165 c56 -91 106 -167 111 -171 29 -17 11 17 -81 161 -55 87 -99 162 -96 169
3 6 8 1 11 -10 10 -33 52 -48 81 -29 13 8 24 22 24 30 0 25 19 17 38 -15 9
-17 51 -93 92 -170 53 -99 80 -140 92 -140 21 0 21 1 9 32 -6 13 -60 158 -122
323 -61 165 -118 313 -126 328 -8 16 -13 33 -11 39 8 23 223 -428 317 -665 13
-31 28 -57 33 -57 31 0 -159 423 -354 790 -67 127 -76 150 -53 150 18 0 175
-85 293 -158 52 -33 78 -56 80 -71 5 -30 46 -55 77 -47 20 5 25 3 25 -13 0
-11 9 -95 19 -188 11 -92 23 -234 27 -315 4 -88 11 -148 17 -148 14 0 1 256
-23 471 -11 95 -18 174 -16 177 3 2 31 -12 63 -31 l58 -35 -6 -144 c-4 -79
-10 -209 -14 -290 -7 -134 -6 -148 9 -148 11 0 16 10 17 33 l2 32 6 -35 7 -35
12 40 c27 94 76 420 66 437 -3 4 6 12 21 18 14 5 30 21 37 35 15 33 31 32 26
-2 -9 -50 -98 -387 -120 -450 -20 -59 -19 -88 2 -67 5 5 34 106 65 224 30 118
62 240 72 270 l18 55 73 14 c40 7 75 11 78 9 2 -3 -21 -50 -52 -104 -101 -173
-225 -456 -209 -473 9 -9 22 13 39 69 24 76 93 220 183 382 l76 137 51 11
c137 28 148 29 141 12 -3 -8 -51 -92 -106 -186 -56 -94 -126 -214 -157 -266
-30 -52 -63 -110 -74 -127 -15 -24 -16 -33 -6 -33 7 0 26 24 42 53 34 60 195
334 283 482 l59 99 160 32 c87 18 161 31 163 29 5 -5 -7 -20 -198 -254 l-165
-201 -63 0 c-35 0 -63 -4 -63 -10 0 -5 25 -10 55 -10 l56 0 -23 -30 c-18 -24
-29 -30 -60 -30 -24 0 -37 -4 -33 -10 3 -6 17 -10 31 -10 l25 0 -23 -30 c-20
-28 -26 -30 -85 -30 -35 0 -63 -4 -63 -10 0 -5 23 -10 50 -10 28 0 50 -3 50
-7 0 -4 -10 -17 -22 -30 -17 -19 -19 -23 -5 -23 8 0 25 13 37 30 l21 30 140 0
c91 0 138 4 134 10 -4 6 -57 10 -126 10 -65 0 -119 3 -119 8 1 4 9 17 19 30
17 19 29 22 95 22 93 0 101 18 10 22 l-66 3 22 28 c21 27 23 27 136 27 145 0
153 18 9 22 l-105 3 170 210 c93 116 177 211 187 213 76 12 93 33 68 86 -16
34 -16 35 46 183 34 81 139 341 234 576 137 343 176 431 195 440 13 7 28 20
34 29 15 25 -4 72 -32 76 -26 4 -71 89 -232 442 -57 124 -141 308 -187 409
-75 164 -83 189 -78 223 5 30 3 44 -11 59 -22 24 -56 24 -77 1z m-47 -279
c-79 -259 -161 -517 -165 -522 -2 -2 -56 22 -119 52 -89 43 -116 60 -116 75 0
28 -25 45 -60 40 -16 -3 -30 -2 -30 1 0 12 535 541 538 532 2 -5 -20 -85 -48
-178z m-1259 -40 c236 -120 429 -220 429 -223 0 -3 -61 -40 -136 -83 l-136
-77 -83 0 c-46 0 -86 -4 -89 -9 -3 -4 34 -11 82 -14 85 -5 88 -4 142 27 30 18
78 45 105 60 l50 27 -35 -31 c-133 -120 -162 -142 -173 -131 -6 6 -44 11 -89
11 -68 0 -79 -2 -89 -21 -10 -19 -9 -21 18 -16 15 3 58 9 96 12 68 7 82 0 51
-26 -20 -17 -190 -27 -180 -10 11 18 -9 13 -37 -9 -21 -17 -30 -18 -53 -10
-40 15 -74 -10 -74 -54 0 -19 6 -36 13 -39 6 -2 8 -8 4 -13 -4 -5 -12 -2 -17
6 -7 11 -11 12 -25 0 -14 -11 -18 -10 -31 8 -8 12 -23 22 -33 22 -37 0 -55
-46 -26 -70 37 -31 17 -41 -189 -100 -59 -17 -111 -29 -114 -26 -3 3 0 38 7
78 7 40 23 161 37 268 32 259 32 260 55 260 11 0 19 5 19 10 0 6 -7 10 -15 10
-19 0 -19 2 5 156 11 71 20 143 20 161 0 25 6 35 28 46 15 8 29 15 31 16 2 1
197 -97 432 -216z m1420 102 c28 -60 100 -220 161 -355 60 -135 143 -314 184
-399 41 -85 74 -158 74 -162 0 -22 2 -23 -587 254 -73 34 -133 65 -133 69 0 3
38 127 84 275 46 147 94 305 107 351 31 114 44 110 110 -33z m-421 -149 c-134
-135 -247 -250 -251 -257 -5 -9 -32 -2 -104 31 -53 24 -98 48 -102 53 -10 16
29 43 247 169 359 208 445 256 449 252 3 -2 -105 -114 -239 -248z m-1561 -110
c-9 -8 -10 -5 -5 14 3 14 6 32 7 40 1 8 4 2 6 -14 3 -16 -1 -34 -8 -40z m-4
-48 c-2 -7 -14 -88 -26 -180 -22 -163 -23 -168 -46 -168 -18 0 -23 -5 -23 -25
0 -18 5 -25 20 -25 23 0 23 -5 7 -110 -12 -72 -13 -75 -45 -84 -18 -5 -35 -6
-38 -3 -6 6 13 95 87 408 21 92 39 174 39 183 0 9 7 16 15 16 8 0 13 -6 10
-12z m1045 -116 c0 -26 -3 -64 -6 -85 -6 -31 -10 -36 -26 -31 -22 7 -47 -11
-58 -42 -6 -15 -21 -24 -47 -29 -21 -3 -65 -18 -98 -31 -98 -41 -112 -44 -126
-27 -10 11 -10 16 0 22 6 4 49 42 94 85 162 151 230 204 250 194 12 -6 17 -21
17 -56z m154 27 l87 -40 -22 -27 c-15 -19 -33 -28 -62 -32 -36 -4 -43 -9 -51
-36 -7 -24 -17 -33 -48 -41 -22 -6 -41 -7 -44 -1 -9 14 7 192 18 206 16 18 28
16 122 -29z m129 -123 c-13 -22 -68 -86 -74 -86 -3 0 -4 24 -1 53 3 38 11 59
30 80 l26 27 13 -31 c7 -17 10 -36 6 -43z m206 -35 c55 -27 106 -51 112 -53
10 -3 -33 -160 -85 -308 -14 -43 -50 -53 -73 -21 -8 12 -25 21 -37 21 -25 0
-47 33 -144 210 l-41 75 41 53 c26 33 48 52 62 52 11 0 28 5 36 10 22 14 19
15 129 -39z m-367 -36 c10 -10 -32 -141 -69 -214 -55 -108 -66 -105 -58 15 10
171 13 181 43 193 30 10 76 14 84 6z m68 -39 c0 -7 -6 -20 -13 -30 -12 -16
-13 -14 -9 18 4 32 22 43 22 12z m-36 -23 c-4 -21 -13 -47 -20 -58 -18 -25
-17 -20 1 43 18 61 29 69 19 15z m826 -133 c189 -87 348 -164 354 -170 8 -9
-75 -10 -319 -5 -487 10 -481 9 -476 32 2 15 73 252 86 291 2 6 6 12 8 12 2 0
158 -72 347 -160z m-1362 138 c-6 -16 -137 -49 -165 -41 -22 5 -31 32 -16 46
3 4 46 7 96 7 65 0 88 -3 85 -12z m314 -83 c-1 -50 -6 -109 -10 -133 l-7 -42
-157 77 c-87 42 -158 81 -158 86 0 5 10 7 23 4 12 -4 29 -2 37 4 11 8 9 9 -10
5 -21 -5 -20 -4 5 8 78 37 223 85 250 83 l30 -2 -3 -90z m46 -27 c-3 -62 -7
-116 -7 -120 -1 -5 -8 -8 -17 -8 -12 0 -15 6 -11 23 3 12 9 63 12 112 4 50 9
93 12 98 14 24 17 -6 11 -105z m312 -41 c39 -70 68 -132 64 -139 -5 -7 -38 -9
-112 -4 -58 3 -107 8 -110 10 -2 3 -1 32 3 64 6 50 10 61 28 66 21 6 21 7 5
20 -10 7 -18 19 -18 26 0 23 52 102 60 93 5 -4 41 -65 80 -136z m-770 93 c0
-5 -8 -10 -17 -10 -15 0 -16 2 -3 10 19 12 20 12 20 0z m105 0 c-3 -5 -16 -10
-28 -10 -18 0 -19 2 -7 10 20 13 43 13 35 0z m-174 -21 c19 -17 21 -22 9 -29
-8 -6 -17 -10 -20 -10 -8 0 -28 49 -22 55 7 7 6 8 33 -16z m-53 -36 c4 -25 -1
-28 -114 -62 -93 -28 -109 -26 -52 6 35 19 45 29 38 38 -8 9 -3 15 17 23 70
27 107 25 111 -5z m727 -55 c-11 -113 -13 -118 -46 -118 -22 0 -29 5 -29 20 0
21 66 160 76 160 3 0 3 -28 -1 -62z m-389 -27 c93 -44 170 -86 172 -94 2 -10
-11 -20 -35 -27 -21 -7 -105 -41 -186 -76 -82 -35 -152 -62 -157 -59 -4 3 -11
20 -14 38 -3 18 -22 82 -41 142 -19 61 -31 111 -27 113 4 1 25 11 47 21 22 11
47 20 56 20 8 1 92 -35 185 -78z m-376 16 c0 -4 -193 -173 -247 -216 -39 -31
-44 -33 -73 -21 -16 7 -30 18 -30 24 0 6 31 43 70 81 65 65 76 71 167 102 97
32 113 36 113 30z m100 -122 c17 -60 36 -123 40 -138 8 -24 6 -29 -13 -36 -12
-5 -65 -28 -117 -51 -52 -22 -102 -42 -110 -43 -19 -1 -160 101 -160 116 0 7
35 40 78 74 42 34 113 93 157 131 44 39 83 67 86 64 4 -4 21 -56 39 -117z
m-328 85 c-27 -22 -97 -45 -169 -56 -72 -10 -48 3 73 41 129 40 125 39 96 15z
m-95 -106 c-54 -53 -59 -55 -80 -41 -42 28 -28 49 48 73 39 12 75 22 80 23 6
0 -16 -25 -48 -55z m1067 8 c3 -5 2 -21 -2 -36 l-7 -27 -28 21 c-36 29 -35 50
2 50 17 0 32 -4 35 -8z m173 -2 c42 0 55 -4 60 -17 3 -10 14 -25 24 -33 17
-14 17 -20 1 -117 -9 -57 -19 -103 -22 -103 -3 0 -41 32 -85 71 -44 40 -92 82
-107 95 -22 19 -28 33 -28 62 0 21 3 42 8 46 4 4 27 5 51 2 24 -3 68 -6 98 -6z
m-1447 -10 c0 -5 -2 -10 -4 -10 -3 0 -8 5 -11 10 -3 6 -1 10 4 10 6 0 11 -4
11 -10z m1089 -50 c-10 -44 -61 -138 -83 -152 -6 -4 -37 -8 -69 -8 -36 0 -56
-4 -52 -10 3 -5 30 -10 60 -10 48 0 53 -2 48 -20 -5 -18 -14 -20 -89 -20 -49
0 -84 -4 -84 -10 0 -6 32 -10 75 -10 l75 0 -70 -140 c-39 -77 -74 -140 -80
-140 -19 0 -35 49 -67 205 -19 88 -36 171 -39 185 -5 25 1 29 183 107 103 45
191 78 195 75 4 -4 2 -27 -3 -52z m1244 42 l168 -7 -86 -47 c-116 -63 -125
-66 -125 -34 0 31 -32 66 -59 66 -11 0 -26 -9 -34 -21 l-15 -20 -163 25 c-90
13 -191 28 -224 32 -33 4 -68 9 -77 13 -20 7 374 3 615 -7z m-681 -32 c-1 -14
-16 -69 -32 -122 -28 -89 -33 -98 -55 -98 -30 0 -31 13 -10 123 12 62 21 83
42 102 35 31 59 28 55 -5z m-1692 9 c0 -6 -5 -19 -11 -30 -8 -15 -7 -24 2 -35
16 -19 6 -28 -26 -20 -24 6 -36 26 -15 26 5 0 7 6 4 14 -7 19 13 56 31 56 8 0
15 -5 15 -11z m1207 -21 c-8 -24 -12 -28 -15 -15 -5 23 4 47 17 47 6 0 5 -13
-2 -32z m741 1 c81 -11 176 -25 212 -32 l65 -12 -87 -3 c-118 -4 -113 -22 6
-22 72 0 96 -4 106 -15 8 -10 9 -19 4 -24 -5 -5 -63 -21 -129 -35 -66 -14
-190 -41 -275 -60 -162 -38 -200 -42 -200 -26 0 16 61 223 72 243 8 15 17 18
44 12 19 -3 101 -15 182 -26z m-1795 7 c18 -14 23 -41 8 -51 -7 -4 -41 46 -41
62 0 7 16 2 33 -11z m1126 -13 l30 -28 -24 -250 c-37 -368 -52 -506 -59 -512
-3 -3 -22 7 -42 22 l-36 28 6 96 c3 53 11 186 16 295 8 148 15 217 31 270 11
39 23 79 25 89 7 24 19 21 53 -10z m-1214 -37 c21 -29 26 -43 18 -55 -14 -22
-38 -20 -38 4 0 11 -6 24 -12 28 -7 4 -13 24 -13 44 0 39 1 39 45 -21z m50 23
c12 -55 -12 -48 -46 14 -8 14 -6 17 15 17 19 0 26 -7 31 -31z m1046 -50 c-7
-61 -9 -66 -10 -28 -1 46 8 113 15 106 2 -2 0 -37 -5 -78z m1323 4 c-95 -109
-186 -203 -195 -203 -5 0 -9 29 -9 63 0 48 4 68 18 79 24 22 235 138 240 133
3 -3 -22 -35 -54 -72z m-2236 -4 c1 -8 -14 -27 -34 -43 -29 -23 -38 -26 -45
-15 -15 24 -10 58 12 80 18 18 23 19 42 6 12 -8 23 -21 25 -28z m1177 -59 c28
-25 68 -60 89 -79 l39 -33 -22 -157 c-32 -229 -63 -358 -90 -377 -12 -9 -42
-33 -67 -55 -52 -45 -55 -45 -96 -22 -29 17 -30 20 -24 73 3 30 19 192 36 360
17 168 33 320 36 339 6 38 -5 43 99 -49z m1119 43 c-9 -21 -79 -193 -155 -383
-77 -190 -163 -399 -190 -465 -28 -66 -61 -145 -73 -175 -13 -30 -29 -55 -37
-55 -18 0 -131 219 -123 239 5 12 21 16 71 16 47 0 64 3 60 13 -2 6 -19 13
-38 14 -19 1 -40 2 -46 2 -18 1 -16 16 3 35 11 11 34 16 75 16 38 0 58 4 54
10 -3 6 -26 10 -51 10 -24 0 -44 2 -44 5 0 10 500 755 507 755 2 0 -4 -17 -13
-37z m-1417 -128 c-4 -83 -14 -126 -56 -259 -28 -87 -52 -161 -54 -163 -4 -3
-89 59 -122 89 -6 5 19 65 65 158 66 133 77 150 99 150 23 0 24 1 7 13 -17 13
-17 15 4 58 13 24 30 55 39 68 15 23 16 23 20 6 2 -11 1 -65 -2 -120z m1377
123 c-4 -7 -31 -44 -59 -83 -42 -57 -160 -232 -404 -597 -24 -37 -26 -38 -88
-38 -35 0 -63 4 -63 10 0 13 142 188 289 358 64 74 127 149 141 167 27 34 181
195 187 195 3 0 1 -6 -3 -12z m-2483 -29 l21 -31 -133 -136 c-74 -75 -135
-139 -137 -141 -7 -13 30 72 58 128 18 36 41 90 52 120 27 73 44 91 84 91 25
0 38 -7 55 -31z m335 -25 c35 -25 66 -50 69 -54 7 -11 -17 -24 -99 -55 l-64
-24 -35 59 -35 60 36 29 c21 17 43 30 50 31 7 0 42 -21 78 -46z m-216 11 c12
-22 11 -26 -11 -44 -32 -27 -47 -26 -55 4 -4 18 -1 32 11 45 24 26 39 25 55
-5z m593 -12 c39 -176 65 -308 62 -311 -2 -2 -74 51 -161 119 -132 103 -154
124 -138 131 93 40 211 87 220 87 6 1 14 -11 17 -26z m1477 -16 c-8 -8 -64
-51 -125 -97 -60 -46 -160 -126 -222 -176 -82 -69 -114 -90 -121 -81 -6 7 -26
45 -46 86 -19 40 -41 80 -47 87 -9 11 -8 22 4 47 15 32 19 33 129 55 62 13
178 38 258 57 80 18 154 34 165 34 17 1 17 -1 5 -12z m49 -73 l-1 -75 -102
-120 c-149 -177 -266 -323 -266 -331 0 -5 -4 -8 -9 -8 -14 0 -124 221 -114
230 4 4 98 79 208 166 110 86 216 170 235 185 19 16 38 28 43 29 4 0 7 -34 6
-76z m-2060 18 c17 -27 31 -54 31 -61 0 -11 -57 -41 -78 -41 -4 0 -18 20 -29
44 l-21 43 31 32 c17 17 32 31 33 31 1 0 16 -22 33 -48z m-129 2 c0 -7 -28
-34 -62 -60 -35 -26 -87 -67 -116 -92 -29 -24 -55 -42 -58 -40 -2 3 44 55 102
117 85 89 109 109 120 100 8 -6 14 -17 14 -25z m538 -129 c81 -63 162 -127
180 -140 35 -28 42 -64 17 -85 -16 -13 -20 -48 -7 -66 4 -6 16 -16 27 -22 16
-8 23 -27 33 -93 6 -45 10 -85 7 -87 -4 -4 -200 51 -236 66 -9 4 -51 58 -93
120 -62 92 -74 117 -66 132 13 25 13 26 -12 50 -15 14 -30 19 -45 15 -15 -3
-23 -1 -23 7 0 7 -25 44 -54 83 l-55 70 77 31 c42 18 83 33 90 33 7 1 79 -51
160 -114z m-500 50 c12 -24 18 -46 14 -49 -8 -5 -186 -76 -267 -107 l-50 -19
35 31 c57 50 232 189 239 189 4 0 17 -20 29 -45z m229 -104 c27 -39 43 -71 40
-82 -6 -23 28 -69 51 -69 17 0 148 -187 139 -197 -3 -2 -54 11 -113 29 l-109
34 -33 89 c-37 98 -76 270 -66 286 9 15 38 -14 91 -90z m810 77 c-3 -8 -6 -5
-6 6 -1 11 2 17 5 13 3 -3 4 -12 1 -19z m-902 -130 c14 -54 36 -125 49 -158
21 -51 23 -61 9 -58 -19 4 -21 7 -78 139 -24 58 -52 119 -60 135 -20 40 -20
43 18 59 29 12 32 12 35 -3 2 -9 14 -61 27 -114z m1345 120 c0 -7 -11 -47 -25
-88 -24 -73 -24 -74 -19 -25 7 69 23 125 34 125 6 0 10 -6 10 -12z m-443 -40
c-3 -7 -5 -2 -5 12 0 14 2 19 5 13 2 -7 2 -19 0 -25z m531 -67 l52 -98 -96
-84 c-100 -88 -124 -105 -124 -92 1 41 99 373 111 373 3 0 29 -44 57 -99z
m-1542 57 c4 -7 6 -54 5 -105 -2 -82 0 -93 15 -93 15 0 16 8 12 65 -3 36 -2
63 2 60 11 -7 83 -185 77 -192 -9 -8 -443 131 -443 142 0 6 55 31 121 56 67
26 135 54 151 62 35 20 50 21 60 5z m981 -188 c-1 -77 -4 -140 -7 -140 -9 0
-70 40 -70 46 0 35 65 234 76 234 1 0 2 -63 1 -140z m-272 30 c3 -5 1 -10 -4
-10 -6 0 -11 5 -11 10 0 6 2 10 4 10 3 0 8 -4 11 -10z m-861 -55 c93 -30 194
-62 226 -71 l57 -16 27 -66 c41 -100 55 -137 51 -140 -6 -6 -51 21 -478 291
-50 31 -82 57 -71 57 10 0 95 -25 188 -55z m985 -33 l45 -39 -19 -69 c-10 -38
-24 -83 -31 -101 -11 -28 -15 -31 -41 -24 -27 7 -29 12 -45 102 -15 85 -15 96
-1 111 9 10 16 31 15 48 -1 36 8 32 77 -28z m781 50 c0 -4 25 -52 55 -107 30
-54 55 -105 55 -112 0 -22 -74 -16 -95 7 -10 11 -26 20 -37 20 -22 0 -58 -34
-58 -55 0 -22 37 -55 60 -55 11 0 30 11 42 25 19 22 58 35 58 20 0 -3 -26 -39
-57 -79 -32 -40 -67 -86 -79 -102 l-21 -28 -89 30 c-70 25 -90 36 -92 52 -2
11 -9 25 -16 31 -10 8 -10 26 1 88 11 68 17 81 44 103 17 14 70 57 118 97 79
66 111 85 111 65z m-1780 -107 c63 -40 166 -104 229 -143 63 -40 118 -72 123
-72 4 0 8 -16 8 -35 0 -30 5 -39 35 -56 19 -12 35 -22 35 -23 0 -5 106 -271
170 -426 153 -371 184 -460 118 -335 -17 33 -53 92 -80 130 -26 39 -80 117
-120 175 -115 169 -268 368 -485 633 -112 136 -203 250 -203 253 0 4 12 -2 28
-12 15 -10 79 -50 142 -89z m74 -235 c201 -250 303 -383 387 -509 l77 -114
-28 -24 c-48 -40 -69 -31 -122 53 -27 41 -48 79 -48 84 0 6 9 10 20 10 11 0
20 5 20 10 0 6 -13 10 -29 10 -24 0 -34 8 -57 47 -15 27 -64 104 -109 173 -45
69 -92 143 -105 165 -13 22 -58 94 -100 160 -42 66 -82 131 -89 145 -17 34 17
-4 183 -210z m283 218 c9 -15 42 -146 42 -168 0 -8 -15 26 -34 75 -19 50 -35
93 -35 98 0 12 18 8 27 -5z m750 -10 c18 -13 34 -27 36 -33 1 -5 1 -45 -1 -87
-3 -71 -5 -78 -24 -78 -34 0 -100 23 -105 37 -4 10 17 97 42 171 6 17 14 15
52 -10z m-491 -68 c6 0 26 -24 43 -52 17 -29 61 -99 97 -156 36 -57 64 -105
62 -108 -3 -2 -57 13 -121 34 -131 43 -217 94 -217 129 0 12 -11 30 -24 40
-22 16 -66 129 -66 168 0 9 31 3 107 -21 58 -19 112 -34 119 -34z m606 -26
l38 -27 -6 -56 c-4 -31 -8 -58 -10 -59 -1 -2 -19 1 -38 8 l-36 12 0 74 c0 41
3 74 7 74 4 0 24 -12 45 -26z m-435 -29 c49 -15 95 -30 103 -34 16 -9 38 -124
39 -209 1 -51 0 -53 -21 -46 -45 13 -47 15 -192 242 -50 79 -53 87 -31 78 8
-3 54 -17 102 -31z m692 -42 c1 -17 -4 -35 -10 -39 -8 -5 -9 6 -4 35 9 55 -2
52 -16 -4 -12 -49 -15 -51 -54 -33 -36 16 -31 30 22 72 42 33 48 35 55 19 3
-10 7 -32 7 -50z m445 25 c22 -32 20 -38 -14 -38 -16 0 -30 -4 -30 -10 0 -5
18 -10 41 -10 38 0 41 -2 35 -24 -3 -12 -26 -57 -52 -98 l-46 -76 -60 24 c-34
13 -63 26 -65 28 -9 9 151 226 167 226 5 0 16 -10 24 -22z m101 12 c6 -10 -29
-50 -43 -50 -15 0 -44 38 -37 49 8 14 72 14 80 1z m-712 -38 c16 -17 15 -20
-13 -47 l-30 -29 0 40 c0 57 14 68 43 36z m-335 -17 c3 -3 -14 -72 -26 -105
-6 -16 -20 47 -21 93 -1 25 2 27 22 21 12 -3 23 -8 25 -9z m150 -102 l3 -60
-66 -58 -66 -58 -22 21 c-25 26 -25 84 0 172 9 30 17 60 19 66 2 8 21 6 66 -6
l63 -17 3 -60z m263 58 c45 -46 37 -66 -22 -52 -19 5 -47 12 -64 16 l-30 7 35
29 c19 15 39 29 43 29 5 0 22 -13 38 -29z m-177 -27 c23 -9 20 -16 -19 -47
l-35 -28 0 41 c0 41 13 50 54 34z m819 -101 c51 -107 57 -129 30 -118 -10 4
-55 20 -100 37 -46 16 -83 32 -83 35 0 14 86 143 96 143 6 0 32 -44 57 -97z
m-670 53 c20 -8 37 -19 37 -24 0 -21 -123 -162 -141 -162 -22 0 -23 5 -8 123
l12 89 32 -5 c17 -3 48 -12 68 -21z m-136 -106 c-12 -82 -13 -85 -39 -88 l-28
-3 0 70 c0 69 1 72 38 105 45 42 47 36 29 -84z m453 49 c0 -14 -17 -11 -102
17 -61 20 -76 29 -68 39 8 10 27 7 90 -18 44 -16 80 -34 80 -38z m-126 0 c56
-17 102 -32 104 -34 2 -2 -30 -55 -71 -118 l-75 -115 -71 -16 c-88 -20 -105
-20 -97 -1 3 8 19 67 36 132 38 144 51 183 63 183 6 0 55 -14 111 -31z m235
-30 c28 -12 50 -24 47 -26 -7 -7 -126 29 -126 38 0 14 24 10 79 -12z m-982
-14 c29 -12 71 -60 61 -70 -4 -4 -141 74 -155 89 -10 11 53 -2 94 -19z m321
-81 c-7 -6 -77 16 -83 26 -3 5 14 23 37 40 l43 32 3 -47 c2 -26 2 -49 0 -51z
m237 0 c-55 -199 -59 -206 -114 -162 -30 23 -41 58 -19 58 21 0 48 32 48 57 0
15 20 48 52 84 28 32 53 58 54 56 2 -2 -7 -43 -21 -93z m403 60 c31 -9 58 -18
60 -19 2 -2 -17 -34 -42 -73 l-45 -69 -92 -17 c-50 -9 -93 -15 -96 -13 -2 3
26 53 64 111 43 69 72 105 80 101 8 -2 39 -12 71 -21z m-864 0 c17 -7 22 -44
6 -44 -9 0 -30 31 -30 44 0 8 5 7 24 0z m993 -10 c-3 -3 -12 -4 -19 -1 -8 3
-5 6 6 6 11 1 17 -2 13 -5z m-928 -28 c10 -12 8 -13 -9 -9 -25 7 -37 23 -17
23 8 0 20 -6 26 -14z m996 -20 c117 -36 117 -37 5 -56 -36 -6 -91 -18 -124
-26 -32 -8 -60 -13 -62 -11 -3 3 65 127 70 127 1 0 50 -15 111 -34z m-872 -19
c31 -13 32 -16 29 -66 l-4 -52 -60 33 c-53 29 -61 38 -63 66 -3 30 -1 32 31
32 19 0 49 -6 67 -13z m92 -51 c23 -35 16 -91 -10 -91 -17 0 -20 8 -23 58 -3
62 7 72 33 33z m-15 -198 c4 -35 8 -48 9 -30 0 17 6 32 11 32 6 0 8 -10 6 -22
-10 -49 -26 -156 -31 -218 -4 -36 -13 -92 -20 -125 l-14 -60 7 70 c4 39 7 152
6 253 0 120 3 179 9 173 6 -6 13 -38 17 -73z m-33 -210 c-3 -8 -6 -5 -6 6 -1
11 2 17 5 13 3 -3 4 -12 1 -19z"/>
<path d="M2585 2700 c3 -5 46 -10 96 -10 53 0 89 4 89 10 0 6 -39 10 -96 10
-61 0 -93 -4 -89 -10z"/>
<path d="M1130 2670 c0 -6 52 -10 135 -10 83 0 135 4 135 10 0 6 -52 10 -135
10 -83 0 -135 -4 -135 -10z"/>
<path d="M1260 2593 c0 -16 285 -19 295 -3 4 6 -31 11 -97 12 -57 1 -124 2
-150 3 -33 0 -48 -3 -48 -12z"/>
<path d="M1240 2510 c0 -6 35 -10 85 -10 50 0 85 4 85 10 0 6 -35 10 -85 10
-50 0 -85 -4 -85 -10z"/>
<path d="M3050 2696 c0 -10 9 -16 21 -16 24 0 21 23 -4 28 -10 2 -17 -3 -17
-12z"/>
<path d="M2957 2603 c-14 -13 -6 -33 13 -33 13 0 20 7 20 20 0 19 -20 27 -33
13z"/>
<path d="M3105 2550 c-3 -6 1 -13 10 -16 19 -8 30 0 20 15 -8 14 -22 14 -30 1z"/>
<path d="M3187 2322 c-32 -35 -15 -82 28 -82 23 0 55 28 55 48 0 16 -37 52
-53 52 -8 0 -21 -8 -30 -18z"/>
<path d="M1913 2279 c-20 -20 6 -59 39 -59 23 0 28 4 28 25 0 35 -44 57 -67
34z"/>
<path d="M1704 1989 c-10 -17 13 -36 27 -22 12 12 4 33 -11 33 -5 0 -12 -5
-16 -11z"/>
<path d="M1522 1984 c2 -11 8 -18 13 -16 15 3 12 25 -3 30 -9 3 -13 -2 -10
-14z"/>
<path d="M1870 1856 c0 -9 7 -16 16 -16 17 0 14 22 -4 28 -7 2 -12 -3 -12 -12z"/>
<path d="M2705 1920 c-3 -6 0 -13 8 -16 25 -9 90 0 95 14 5 15 -94 17 -103 2z"/>
<path d="M2690 1850 c0 -6 42 -10 105 -10 63 0 105 4 105 10 0 6 -42 10 -105
10 -63 0 -105 -4 -105 -10z"/>
<path d="M2100 3020 c0 -6 42 -10 105 -10 63 0 105 4 105 10 0 6 -42 10 -105
10 -63 0 -105 -4 -105 -10z"/>
<path d="M2100 2960 c0 -6 33 -10 80 -10 47 0 80 4 80 10 0 6 -33 10 -80 10
-47 0 -80 -4 -80 -10z"/>
<path d="M2103 2898 c2 -7 7 -12 10 -10 4 1 30 2 58 2 31 0 48 4 44 10 -9 15
-118 13 -112 -2z"/>
<path d="M3617 2484 c-15 -15 8 -24 64 -24 46 0 59 3 59 15 0 12 -13 15 -58
15 -32 0 -62 -3 -65 -6z"/>
<path d="M3657 2423 c-78 -5 -63 -23 19 -23 46 0 64 4 62 12 -5 14 -9 15 -81
11z"/>
<path d="M3600 2350 c0 -6 30 -10 70 -10 40 0 70 4 70 10 0 6 -30 10 -70 10
-40 0 -70 -4 -70 -10z"/>
<path d="M3600 2290 c0 -6 30 -10 70 -10 40 0 70 4 70 10 0 6 -30 10 -70 10
-40 0 -70 -4 -70 -10z"/>
<path d="M3605 2231 c-6 -11 69 -25 105 -19 13 1 25 9 28 16 5 15 -123 18
-133 3z"/>
<path d="M600 1960 c0 -6 35 -10 84 -10 47 0 88 5 91 10 4 6 -27 10 -84 10
-54 0 -91 -4 -91 -10z"/>
<path d="M3547 1253 c-4 -3 -7 -39 -7 -80 0 -58 3 -73 15 -73 12 0 15 16 15
80 0 73 -6 91 -23 73z"/>
<path d="M3290 1160 c0 -5 18 -10 39 -10 22 0 43 5 46 10 4 6 -12 10 -39 10
-25 0 -46 -4 -46 -10z"/>
<path d="M3176 933 c-12 -12 -6 -33 9 -33 8 0 15 6 15 14 0 17 -14 28 -24 19z"/>
<path d="M3450 820 c0 -6 35 -10 85 -10 50 0 85 4 85 10 0 6 -35 10 -85 10
-50 0 -85 -4 -85 -10z"/>
<path d="M3290 750 c0 -6 50 -10 130 -10 80 0 130 4 130 10 0 6 -50 10 -130
10 -80 0 -130 -4 -130 -10z"/>
<path d="M3343 673 c-24 -2 -43 -8 -43 -14 0 -5 54 -9 126 -9 96 0 125 3 122
13 -5 12 -118 18 -205 10z"/>
<path d="M2975 520 c-3 -5 0 -13 8 -16 23 -9 142 0 142 11 0 14 -142 19 -150
5z"/>
<path d="M3192 370 c-16 -17 -34 -20 -152 -22 -82 -2 -135 -7 -135 -13 0 -6
53 -11 135 -13 118 -2 136 -5 152 -22 24 -25 53 -25 78 0 24 24 25 38 4 68
-19 27 -57 29 -82 2z"/>
<path d="M930 313 c0 -6 17 -13 38 -17 58 -9 152 -7 152 4 0 6 -12 10 -27 10
-16 0 -58 3 -95 7 -44 4 -68 2 -68 -4z"/>
<path d="M940 241 c0 -10 48 -21 91 -21 46 0 34 17 -17 24 -62 8 -74 8 -74 -3z"/>
<path d="M920 168 c0 -12 20 -17 81 -22 45 -4 84 -4 88 -1 12 13 -27 25 -81
25 -31 0 -63 3 -72 6 -10 4 -16 1 -16 -8z"/></g>
</svg>
