<svg xmlns="http://www.w3.org/2000/svg" viewBox="0 0 512 512" width="512" height="512"><g transform="rotate(0 256 291)"><animateTransform attributeName="transform" type="rotate" from="0 256 291" to="360 256 291" dur="6.0s" repeatCount="indefinite"/><line x1="204" y1="150" x2="308" y2="150" stroke="#111827" stroke-width="3.5" stroke-linecap="round"/><line x1="308" y1="150" x2="396" y2="250" stroke="#111827" stroke-width="3.5" stroke-linecap="round"/><line x1="396" y1="250" x2="256" y2="432" stroke="#111827" stroke-width="3.5" stroke-linecap="round"/><line x1="256" y1="432" x2="116" y2="250" stroke="#111827" stroke-width="3.5" stroke-linecap="round"/><line x1="116" y1="250" x2="204" y2="150" stroke="#111827" stroke-width="3.5" stroke-linecap="round"/><line x1="204" y1="150" x2="256" y2="196" stroke="#111827" stroke-width="3.5" stroke-linecap="round"/><line x1="308" y1="150" x2="256" y2="196" stroke="#111827" stroke-width="3.5" stroke-linecap="round"/><line x1="256" y1="196" x2="256" y2="250" stroke="#111827" stroke-width="3.5" stroke-linecap="round"/><line x1="116" y1="250" x2="196" y2="250" stroke="#111827" stroke-width="3.5" stroke-linecap="round"/><line x1="196" y1="250" x2="256" y2="250" stroke="#111827" stroke-width="3.5" stroke-linecap="round"/><line x1="256" y1="250" x2="316" y2="250" stroke="#111827" stroke-width="3.5" stroke-linecap="round"/><line x1="316" y1="250" x2="396" y2="250" stroke="#111827" stroke-width="3.5" stroke-linecap="round"/><line x1="256" y1="196" x2="116" y2="250" stroke="#111827" stroke-width="3.5" stroke-linecap="round"/><line x1="256" y1="196" x2="396" y2="250" stroke="#111827" stroke-width="3.5" stroke-linecap="round"/><line x1="204" y1="150" x2="256" y2="432" stroke="#111827" stroke-width="3.5" stroke-linecap="round"/><line x1="308" y1="150" x2="256" y2="432" stroke="#111827" stroke-width="3.5" stroke-linecap="round"/><line x1="256" y1="250" x2="256" y2="432" stroke="#111827" stroke-width="3.5" stroke-linecap="round"/><line x1="196" y1="250" x2="256" y2="432" stroke="#111827" stroke-width="3.5" stroke-linecap="round"/><line x1="316" y1="250" x2="256" y2="432" stroke="#111827" stroke-width="3.5" stroke-linecap="round"/><line x1="256" y1="196" x2="256" y2="432" stroke="#111827" stroke-width="3.5" stroke-linecap="round"/><circle cx="204" cy="150" r="7" fill="#111827"><animate attributeName="r" values="5;9.5;5" dur="3.0s" begin="-0.00s" repeatCount="indefinite"/></circle><circle cx="308" cy="150" r="7" fill="#111827"><animate attributeName="r" values="5;9.5;5" dur="3.0s" begin="-0.33s" repeatCount="indefinite"/></circle><circle cx="116" cy="250" r="7" fill="#111827"><animate attributeName="r" values="5;9.5;5" dur="3.0s" begin="-0.67s" repeatCount="indefinite"/></circle><circle cx="396" cy="250" r="7" fill="#111827"><animate attributeName="r" values="5;9.5;5" dur="3.0s" begin="-1.00s" repeatCount="indefinite"/></circle><circle cx="256" cy="196" r="7" fill="#111827"><animate attributeName="r" values="5;9.5;5" dur="3.0s" begin="-1.33s" repeatCount="indefinite"/></circle><circle cx="256" cy="250" r="7" fill="#111827"><animate attributeName="r" values="5;9.5;5" dur="3.0s" begin="-1.67s" repeatCount="indefinite"/></circle><circle cx="196" cy="250" r="7" fill="#111827"><animate attributeName="r" values="5;9.5;5" dur="3.0s" begin="-2.00s" repeatCount="indefinite"/></circle><circle cx="316" cy="250" r="7" fill="#111827"><animate attributeName="r" values="5;9.5;5" dur="3.0s" begin="-2.33s" repeatCount="indefinite"/></circle><circle cx="256" cy="432" r="7" fill="#111827"><animate attributeName="r" values="5;9.5;5" dur="3.0s" begin="-2.67s" repeatCount="indefinite"/></circle></g></svg>