<svg xmlns="http://www.w3.org/2000/svg" version="1.0" viewBox="0 0 574 572"><path d="M260 21A267 267 0 0 0 31 358q18 66 69 116c16 16 28 25 45 37q50 30 107 39c17 2 55 2 71 0q43-7 81-25a271 271 0 0 0 148-276q-6-36-21-71c-16-37-46-75-79-102a271 271 0 0 0-192-55m66 11q30 5 52 13c13 5 34 16 45 22 26 16 56 45 74 70a250 250 0 0 1 3 292 252 252 0 0 1-247 111 251 251 0 0 1-168-96q-51-67-56-153A260 260 0 0 1 264 30l26-1c17 1 26 1 36 3"/><path d="M263 58c-27 3-58 13-79 24l-5 3-3-2q-6-5-14 1-2 2-2 8 2 6-3 7c-24 16-48 40-64 65-12 20-25 52-29 72l-5 37-3 3q-6 4-6 10 0 7 7 10 4 0 3 7a246 246 0 0 0 51 126c6 8 7 9 6 13q-1 5 3 7 4 4 9 1 1-1 8 5c33 31 84 53 129 57 8 0 8 0 10 4 3 7 14 7 18 0q2-5 9-4l16-2a233 233 0 0 0 152-87q5-8 8-7 10-1 7-12-2-1 4-11c11-20 21-48 25-72l3-42c-1-6 3-6 3-11l-3-7-14-53-10-24c-6-12-6-12-4-15 3-6-2-14-8-13-4 1-4 1-10-8a251 251 0 0 0-151-90c-15-2-44-2-58 0m38 1a229 229 0 0 1 174 101v10q3 4 8 4 2-1 7 8c10 19 23 70 24 79q-1-2-3 7c0 8 3 4 3 11 3 48-19 97-23 106l-8 16-4-1q-4-1-6 3l-2 6q1 3-7 11a208 208 0 0 1-89 55l-3-7c-3-12-7-27-6-28l27-5q18-2 20-4l12-10 11-8 7-14q10-21 28-45l9-13 3-24 2-22-3-7c-5-11-9-23-9-27l-26-43c-6-11-8-12-25-29l-21-21-17-9-18-9-22-5c-26-5-31-6-50-4l-21 2-44 7c-6 1-43 15-56 20l-39 28c-11 7-12 8-17 16l-8 13c-4 5-4 6-10 32l-2 12 4 14 5 16 16 19 17 16 23 4 24 4-2 8-1 7 8 8 11 13c3 3 6 5 17 10l13 6h10l19 1c8 1 9 1 17-2l8-3 5 8c4 8 7 11 15 17q6 4 14 15l11 15 14 17c9 13 9 14 14 14l5 1-9 2c-14 3-24 4-39 4-17 0-25-1-42-5-13-3-13-3-13-6 0-6-7-9-12-6l-3 1-9-6a164 164 0 0 1-65-91q-2-6 1-7c6-7-2-16-10-12l-3 4q-3 7 5 10c3 2 4 2 5 9 4 12 12 30 20 43q20 28 45 46 12 8 10 9 2 8 8 9l5-2 3-2 8 2c18 5 25 6 46 6 19 0 28-1 44-5a236 236 0 0 0 102-55l5-5 4-4-2 4a238 238 0 0 1-163 88h-9l-1-3q-3-7-10-7-8 1-10 8 0 3-7 1-35-3-62-14-34-14-64-39c-9-8-10-8-9-11q3-5-2-8-3-4-7-3l-5 1-7-9-11-15-14-24h2c7 3 12-8 6-11-5-2-11 2-9 7h-1a191 191 0 0 1-22-79l-1-8 3-1q6-3 5-10l-2-7-3-3 2-8c4-17 13-38 16-40q3 0 2-3 0-3 8-16a228 228 0 0 1 75-70c10-5 11-5 13-4q6 3 10-1 6-7-2-13-10-2-11 7 1 4-6 6c-16 7-39 24-54 40-12 13-29 35-37 50-6 11-13 31-17 44l-1 8-1-4a220 220 0 0 1 92-166c8-7 9-7 11-5l5 1q7-1 10-7-1-4 7-6c9-3 26-8 40-10 10-2 15-2 35-2 27 0 40 1 64 9q7 2 6 5c0 5 8 8 13 5 1-2 2-1 11 3l21 13a164 164 0 0 1 58 67c5 9 5 10 3 12-3 6 0 13 6 13 10 0 11-14 1-16-3 0-3-1-8-11q-25-52-81-81c-9-4-9-4-9-8q0-2-3-5-6-3-10 0c-1 2-3 2-14-2a216 216 0 0 0-126 3l-12 3 31-14c17-6 40-11 59-13zm19 86c3 2 8 11 8 11h-4l-17-5-13-3-3 2-4 3-5-3-4-3 2-1 33-4q5-1 7 3m29 4c15 3 16 3 31 11l13 7a411 411 0 0 1-59-11l-3-2-5-5-4-6 5 2zm-71 1c12 8 12 9 11 21v8l-4-4c-10-9-13-11-32-16l-20-7c1-1 34-7 36-6zm32 4 16 4q5 0-4 5l-18 11-12 8v-10l-1-13q-2-4 1-7l3-2zm-70 3 15 5 1 9 2 10-19-4-18-5-11 2-23 4 5-7q4-8 7-8l26-10zm101 7 14 8 9 6-5 3c-15 9-19 12-27 24l-9 12q0 4 9-9l8-9 6 17 6 18c1-1-4-18-8-30l-2-9 59 3s-37 30-51 60c-1 2-45 8-45 8l14-20-10-33 7-15 10-25 5-11q1-3 10 2m-17 10-11 25-6 14 8 29-45-35 11-11c9-9 13-13 29-23l19-12zm37-10 41 8v23l-2-1-11-7c-27-14-49-26-46-26zm-92 3c7 3 18 12 19 15 1 2 0 3-10 14l-11 11 9 82c1 2-33-1-33-1l-3-24c-3-19-3-26-3-38 0-16-2-12 15-31 10-12 10-11 6-26l-1-6h3zm-81 5-6 8-34 11 9-8 16-11 13-5 6-2zm69 12-19 23c-1 2-3 1-19-7l-18-9-10 4c-8 4-8 5-8 7v12l1 9 1-11-1-11 8-4 9-3 18 8 16 8-1 12-1 12-19-7c-4-2-5-3-9-11l-5-9 3 9 4 9-3 3c-5 4-18 14-20 14l-11-11-10-10h-27l12-10 24-19 17-12 17-3 14-3 18 5zm164 7 14 15-14-5-15-5v-20zm-39-4 14 8h-1l-21-1-24-1-5-1 11-6 11-7zm-209 1c-12 11-40 33-40 31l8-23 36-12zm-39 23-4 11-9 4-10 3 7-11c5-10 7-11 12-15l7-4zm288-7c16 5 18 6 19 8l9 33c-1 0-41-45-39-45m-15 55c-1 1-18 12-22 13l-22-8s9-27 51-59m13 32 8 23-16 22c0 3 17-19 18-20l23-7q3-2 5 7l7 22 3 15c0 1-20-11-17-8 1 1 17 11 17 13l1 3c1 0 1 1-5 24l-5 22v4l-1-6-2-15v-9l-6-5-5-6-1-16c0-15-2 17-2 17s-32 39-33 42l-14 5-63 10c-1 0 0-11 6-20 10-5 29-6 29-6l38 15-49-23-12-6h45l47-43c0-2-46 40-46 40l-48 1 12-28c-1-1-15 27-15 27-1 1-47 14-48 16l-9 19-7 16h-30l-5-5q-5-3-6-7l-1-3-1 3q-2 6 2 6l5 4 4 4-4 6-4 6-14-6-13-8-9-10-6-7 5 2c10 3 20 5 21 4q2-1-19-6l-10-2c-1-1 7-27 10-33 2-5 3-6 11-12 11-9 16-12 25-17l8-4s38 2 45 0c17-21 21-21 23-21m0 0 42-9 26 11s-24 23-23 24c1 0 24-22 26-22 2 1-4-6-4-6l24-11c2-8 6-57 8-53l9 27m-2-24 35 38c0 2-21 9-23 8l-17-47-2-6zm-99 37c2 3-33 45-36 43l-10-80m193 38 5 8-14-8-4-13-4-15m-273 14 10 11-7 5-10 10 9-7 11-7q0-2 14 5l12 6 4 8 15 28-7 5q-7 5-8 3l-12-9-10-8v-10q0-18-2-17l-1 13v14l-16-9-18-10-2-2-5-7c-4-8-12-20-12-18l7 12 6 14-6 1-18-2-11-1 8-17 8-18c1-2 4-3 20-3h11zm-48 2-8 17-3 7-2-12-3-13 21-9zm95-4 13 5c2 1 2 0 5 27l4 22q1 3-3 4h-4a203 203 0 0 1-23-36l-2-3-3-1-10-3-7-4 9-7 10-8zm-107 30-6 5-6 4 3-16 3-15 3 11zm350-6 7 3v5l-3 25-2-3-5-19-5-15zm-324 11q12 0 13 2l-7 33c0 1-27-33-28-36l5-1zm-28 5-2 14q-1 11-2 5v-8q2-7-3-4l-2-2q-2-3 4-7l6-4zm13 6 13 19 6 7h-9l-17-2q-9 1-8-2l3-18 3-15zm354 5 5 12-14 6v-9l2-14 2-9zm-279 10 11 10 2 2-7 5-9 6-24-10q-4-1-11-9l-9-7 1-10c2-14 0-13 20-3 15 7 19 10 26 16m-41 4q8 8 4 7l-14-1 3-12zm324 15-2 23-5-15c-3-13-4-16-3-17 1-2 9-5 11-5zm-350-6 13 1 4 8-10 18-23-23-5-6h4zm61 12q3 0 1 5l-2 4-36-12-3-3-2-2q-5-2 7-2l10-1 12 6zm281 4c6 20 7 17-6 28q-12 9-11 6l6-25 6-22zm-301 2 18 7-4 11-46-7 5-9q6-10 7-9zm274-3c4 3 5 28 6 36l1 3-48-1 35-42 8 8m-92 17c-16 9-25-5-33 30q-10 2-15 0l-23-18s2-10 30-17l19-5m134 23-10 14-4 6v-4c0-9 1-10 10-17l9-6zm-159 21-20 13-8-4-8-4 4-7 5-12 2-5 3 2m160 3h5v8l-1 8-41-16zm-52 45-29-5-36-6-8-2q-1-1 4-2l75-32m46 20c3 0-2 3-24 14l-25 13v-4l6-41m-17 2-46 18-24 10c-1 0-7-12-6-13l28-6m-15 37 7 10h-10q-19-3-28-21l-4-7 2-1 9-6 7-4 5 9zm-46-24 6 4-7 3-7 3-11-1-18-1-7-1 4-5 3-6 16 1c14 0 16 0 21 3m162 12-9 16h-2q2-1-4-1t-4 2q2 3 3 2l2 1-8 6-7 7-6-10-6-11 17-10 32-16zm-98 2 36 7 18 3 12 22-22-3-36-6-15-1-8-12-8-13 2-1zm-16 23 9 3 17 43q0 3-5-5c-26-33-33-44-30-43zm48 7q33 4 20 4l-15 2-13 2-13-6-11-7 5 1zm-15 8c3 2 4 2 6 11l2 10h-16l-6-15-7-16q-1-3 9 3zm10 31 1 8-12-1-4-6-2-7h6l8-1q2-1 3 7"/><path d="M269 120q0 3 3 2 3 1 3-2t-3-3q-4-1-3 3m108 9q-1 5 3 5 3 0 3-3t-3-3zm65 33q-1 4 2 6 5 1 5-4c0-4-5-6-7-2m-305 3-1 2q0 2 3 2 3 1 2-2t-4-2m333 42q-1 2 0 0l2-2zm-18 13q-1 4 3 7c4 1 7-5 4-8q-4-2-7 1m36 14c-2 3 2 7 4 4q3-1 1-3-2-3-5-1M86 300c-3 2 0 7 3 5q4-3-1-6zm416 14q-3 3 2 4 2 1 2-2t-4-2M84 351q-3 3 0 5 4 2 6-2 0-4-4-5zm397 32q-1 2 1 3v-3zm-346 3q-4 3-1 8t8 1q4-5 1-8-5-5-8-1m85 36q1 3 4 4 3-1 1-5-3-2-5 1m86 28q-2 4 3 5 3 0 2-5zm27-158-7 14q0 3 1 1c2-1 14-25 14-26q1-5-8 11m-66 27-8 15-10 2-9 2-4-2-10-5c-6-4-26-10-27-8q-2 1 11 4l19 8 9 5-5 11-3 11q1 2 6-11l5-10 54-17-32 8 6-14 7-13-1-1z"/></svg>
